<svg width="532" height="261" viewBox="0 0 532 261" fill="none" xmlns="http://www.w3.org/2000/svg">
<path d="M4.05399 3.29843H528.637V257.688H4.05399V3.29843Z" fill="#241F23"/>
<path d="M29.5951 28.8623C33.9194 28.8623 37.4243 25.3427 37.4243 21.0003C37.4243 16.6628 33.9194 13.1432 29.5951 13.1432C25.2757 13.1432 21.7709 16.6628 21.7709 21.0003C21.7709 25.3427 25.2757 28.8623 29.5951 28.8623Z" fill="#F7F2EA"/>
<path d="M57.7475 28.8623C62.0718 28.8623 65.5717 25.3427 65.5717 21.0003C65.5717 16.6628 62.0718 13.1432 57.7475 13.1432C53.4232 13.1432 49.9183 16.6628 49.9183 21.0003C49.9183 25.3427 53.4232 28.8623 57.7475 28.8623Z" fill="#F7F2EA"/>
<path d="M85.3125 28.8623C89.6318 28.8623 93.1367 25.3427 93.1367 21.0003C93.1367 16.6628 89.6318 13.1432 85.3125 13.1432C80.9882 13.1432 77.4833 16.6628 77.4833 21.0003C77.4833 25.3427 80.9882 28.8623 85.3125 28.8623Z" fill="#F7F2EA"/>
<path d="M531.797 0.125946H0.894775V260.865H531.797V0.125946ZM525.478 254.52H7.21339V6.47105H525.478V254.52Z" fill="#F7F2EA"/>
<path d="M519.747 248.775H13.6455V35.4849H519.747V248.775Z" fill="#F7F2EA"/>
<path d="M192.945 19.7894C193.064 20.5033 193.232 21.1972 193.459 21.8714C193.696 22.5357 193.962 23.1751 194.268 23.7948H194.387C194.688 23.1751 194.95 22.5357 195.177 21.8714C195.399 21.1972 195.577 20.5033 195.71 19.7894H196.974C196.786 20.7015 196.519 21.6087 196.164 22.5059C195.818 23.3933 195.384 24.2707 194.861 25.1431H193.696C193.168 24.2707 192.728 23.3933 192.373 22.5059C192.027 21.6236 191.761 20.7164 191.563 19.7894H192.945Z" fill="#F7F2EA"/>
<path d="M201.228 19.7894V25.1431H199.905V20.6024L200.122 20.8403H198.147L198.246 19.7894H201.228ZM198.108 24.0922H203.005L202.906 25.1431H198.207L198.108 24.0922ZM200.339 18.7583C200.166 18.7583 200.013 18.7286 199.885 18.6592C199.752 18.5947 199.648 18.5006 199.569 18.3816C199.5 18.2527 199.47 18.104 199.47 17.9454C199.47 17.6975 199.549 17.5042 199.707 17.3703C199.865 17.2266 200.072 17.1522 200.339 17.1522C200.601 17.1522 200.813 17.2266 200.971 17.3703C201.129 17.5042 201.208 17.6975 201.208 17.9454C201.208 18.1982 201.129 18.3965 200.971 18.5402C200.813 18.6889 200.601 18.7583 200.339 18.7583Z" fill="#F7F2EA"/>
<path d="M207.95 17.3704H209.273V25.1431H208.029V24.1517L207.95 24.0724V17.3704ZM204.139 22.7439C204.139 22.0697 204.262 21.5096 204.514 21.0585C204.776 20.5974 205.126 20.2554 205.561 20.0274C206.005 19.8043 206.508 19.6903 207.061 19.6903C207.417 19.6903 207.752 19.7399 208.068 19.8291C208.384 19.9084 208.69 20.0373 208.996 20.2058L208.404 21.1179C208.137 20.9593 207.881 20.8403 207.634 20.761C207.382 20.6817 207.12 20.6421 206.844 20.6421C206.671 20.6421 206.518 20.6619 206.39 20.7015C206.271 20.7412 206.143 20.7957 206.015 20.8602C205.867 20.9692 205.743 21.1378 205.64 21.3757C205.546 21.6137 205.501 21.9706 205.501 22.4464C205.501 22.9917 205.59 23.428 205.778 23.7551C205.96 24.0873 206.301 24.2508 206.805 24.2508C207.041 24.2508 207.288 24.2112 207.555 24.1319C207.816 24.0426 208.098 23.9237 208.404 23.775L208.088 24.5681H207.891C207.654 24.7812 207.397 24.9547 207.12 25.0836C206.844 25.2026 206.533 25.2621 206.192 25.2621C205.758 25.2621 205.383 25.1629 205.067 24.9647C204.761 24.7664 204.534 24.4838 204.376 24.112C204.218 23.7303 204.139 23.2743 204.139 22.7439Z" fill="#F7F2EA"/>
<path d="M212.362 20.8404C212.229 20.9494 212.115 21.0981 212.026 21.2964C211.932 21.4947 211.888 21.7673 211.888 22.1094C211.888 22.5753 211.932 22.957 212.026 23.2594C212.13 23.5668 212.322 23.8047 212.599 23.9732C212.875 24.1467 213.275 24.231 213.803 24.231C214.08 24.231 214.341 24.2112 214.593 24.1715C214.855 24.122 215.092 24.0625 215.304 23.9931L215.284 24.9448C215.018 25.039 214.731 25.1134 214.415 25.163C214.109 25.2274 213.784 25.2621 213.428 25.2621C212.806 25.2621 212.288 25.163 211.868 24.9647C211.444 24.7664 211.128 24.4789 210.92 24.0922C210.708 23.6956 210.604 23.2098 210.604 22.6249C210.604 21.9656 210.733 21.4154 210.999 20.9791C211.261 20.533 211.611 20.2009 212.046 19.9877C212.48 19.7795 212.944 19.6705 213.448 19.6705C213.922 19.6705 214.317 19.7647 214.633 19.9481C214.949 20.1364 215.176 20.3992 215.324 20.7412C215.467 21.0733 215.541 21.4699 215.541 21.9309V22.6051H211.671V21.8714H214.554L214.238 22.2878C214.262 22.2085 214.282 22.1242 214.297 22.0301C214.307 21.9408 214.317 21.8417 214.317 21.7326C214.317 21.4848 214.267 21.2766 214.178 21.1179C214.099 20.9494 213.971 20.8205 213.803 20.7412C213.645 20.652 213.433 20.6024 213.171 20.6024C212.984 20.6024 212.821 20.6322 212.678 20.6817C212.544 20.7214 212.441 20.7759 212.362 20.8404Z" fill="#F7F2EA"/>
<path d="M219.281 25.2621C218.793 25.2621 218.353 25.153 217.958 24.9448C217.564 24.7366 217.253 24.4243 217.03 24.0129C216.818 23.5915 216.714 23.081 216.714 22.4861C216.714 21.8417 216.838 21.3063 217.09 20.88C217.351 20.4587 217.687 20.1563 218.097 19.9679C218.501 19.7696 218.946 19.6705 219.42 19.6705C219.903 19.6705 220.338 19.7795 220.723 19.9877C221.103 20.2009 221.399 20.5181 221.611 20.9395C221.819 21.3658 221.927 21.8665 221.927 22.4465C221.927 23.0958 221.799 23.6312 221.552 24.0526C221.3 24.4789 220.97 24.7862 220.565 24.9845C220.17 25.1679 219.74 25.2621 219.281 25.2621ZM219.4 24.3103C219.583 24.3103 219.74 24.3004 219.874 24.2707C220.017 24.231 220.135 24.1814 220.229 24.112C220.348 24.0228 220.446 23.8642 220.525 23.6362C220.604 23.4131 220.644 23.1157 220.644 22.7439C220.644 22.3077 220.609 21.9408 220.545 21.6335C220.476 21.3311 220.338 21.0882 220.13 20.8998C219.933 20.7164 219.637 20.6222 219.242 20.6222C219.054 20.6222 218.896 20.6421 218.768 20.6817C218.635 20.7115 218.516 20.7561 218.413 20.8205C218.334 20.8751 218.26 20.9593 218.195 21.0783C218.141 21.1873 218.097 21.3311 218.057 21.5145C218.018 21.7029 217.998 21.926 217.998 22.1887C217.998 22.6249 218.028 22.9967 218.097 23.2991C218.161 23.5915 218.294 23.8344 218.492 24.0327C218.699 24.2211 219.005 24.3103 219.4 24.3103Z" fill="#F7F2EA"/>
<path d="M222.469 26.313H228.728V26.9673H222.469V26.313Z" fill="#F7F2EA"/>
<path d="M232.923 19.7894H234.246V25.1431H233.002V24.1715L232.923 24.0922V19.7894ZM230.83 19.7894V23.4775C230.83 23.6659 230.86 23.8146 230.929 23.9336C230.993 24.0426 231.077 24.1219 231.186 24.1715C231.304 24.2112 231.447 24.231 231.62 24.231C231.906 24.231 232.183 24.1715 232.449 24.0525C232.726 23.9237 232.987 23.7502 233.239 23.537L233.121 24.4095H232.923C232.711 24.6771 232.435 24.8853 232.094 25.044C231.748 25.1877 231.393 25.2621 231.028 25.2621C230.554 25.2621 230.184 25.1382 229.922 24.8853C229.655 24.6375 229.527 24.2855 229.527 23.8344L229.507 19.7894H230.83Z" fill="#F7F2EA"/>
<path d="M236.98 27.007H235.657V19.7894H236.921V20.7412L236.98 20.8205V27.007ZM240.81 22.1887C240.81 22.8628 240.677 23.4329 240.416 23.8939C240.149 24.3599 239.794 24.7019 239.349 24.925C238.915 25.1481 238.421 25.2621 237.868 25.2621C237.523 25.2621 237.187 25.2125 236.861 25.1233C236.545 25.034 236.239 24.9002 235.953 24.7267L236.545 23.8146C236.807 23.9732 237.064 24.0922 237.316 24.1715C237.562 24.2508 237.829 24.2905 238.105 24.2905C238.263 24.2905 238.406 24.2806 238.54 24.2508C238.668 24.2112 238.796 24.1517 238.915 24.0724C239.073 23.9831 239.196 23.8146 239.29 23.5767C239.379 23.3288 239.428 22.9719 239.428 22.5059C239.428 21.9656 239.335 21.5294 239.152 21.1972C238.964 20.8552 238.629 20.6817 238.145 20.6817C237.908 20.6817 237.651 20.7313 237.375 20.8205C237.108 20.8998 236.832 21.0138 236.545 21.1576L236.861 20.3843H237.059C237.296 20.1612 237.543 19.9877 237.809 19.8687C238.086 19.7498 238.392 19.6903 238.737 19.6903C239.172 19.6903 239.537 19.7894 239.843 19.9877C240.159 20.1761 240.396 20.4586 240.554 20.8403C240.722 21.2121 240.81 21.6632 240.81 22.1887Z" fill="#F7F2EA"/>
<path d="M243.741 25.1431V18.2032L243.959 18.4213H242.024L242.122 17.3704H245.064V25.1431H243.741ZM241.984 24.0922H246.822L246.723 25.1431H242.083L241.984 24.0922Z" fill="#F7F2EA"/>
<path d="M250.622 25.2621C250.133 25.2621 249.694 25.153 249.299 24.9448C248.904 24.7366 248.593 24.4243 248.371 24.0129C248.159 23.5915 248.055 23.081 248.055 22.4861C248.055 21.8417 248.178 21.3063 248.43 20.88C248.692 20.4587 249.027 20.1563 249.437 19.9679C249.842 19.7696 250.286 19.6705 250.76 19.6705C251.244 19.6705 251.678 19.7795 252.063 19.9877C252.443 20.2009 252.74 20.5181 252.952 20.9395C253.159 21.3658 253.268 21.8665 253.268 22.4465C253.268 23.0958 253.139 23.6312 252.893 24.0526C252.641 24.4789 252.31 24.7862 251.905 24.9845C251.51 25.1679 251.081 25.2621 250.622 25.2621ZM250.74 24.3103C250.923 24.3103 251.081 24.3004 251.214 24.2707C251.357 24.231 251.476 24.1814 251.57 24.112C251.688 24.0228 251.787 23.8642 251.866 23.6362C251.945 23.4131 251.984 23.1157 251.984 22.7439C251.984 22.3077 251.95 21.9408 251.886 21.6335C251.816 21.3311 251.678 21.0882 251.471 20.8998C251.273 20.7164 250.977 20.6222 250.582 20.6222C250.395 20.6222 250.237 20.6421 250.108 20.6817C249.975 20.7115 249.857 20.7561 249.753 20.8205C249.674 20.8751 249.6 20.9593 249.536 21.0783C249.481 21.1873 249.437 21.3311 249.398 21.5145C249.358 21.7029 249.338 21.926 249.338 22.1887C249.338 22.6249 249.368 22.9967 249.437 23.2991C249.501 23.5915 249.635 23.8344 249.832 24.0327C250.039 24.2211 250.345 24.3103 250.74 24.3103Z" fill="#F7F2EA"/>
<path d="M257.897 25.1431V21.455C257.897 21.2964 257.857 21.1725 257.778 21.0783C257.699 20.9891 257.586 20.9197 257.443 20.88C257.295 20.8304 257.132 20.8007 256.949 20.8007C256.633 20.8007 256.268 20.8404 255.863 20.9197C255.468 20.999 255.044 21.113 254.599 21.2567L254.738 20.0472C255.103 19.9282 255.488 19.839 255.883 19.7696C256.288 19.7052 256.692 19.6705 257.087 19.6705C257.571 19.6705 257.966 19.725 258.272 19.8291C258.588 19.9382 258.825 20.1067 258.983 20.3446C259.141 20.5727 259.22 20.8602 259.22 21.2171V25.1431H257.897ZM258.015 22.9223C257.699 22.9124 257.384 22.9124 257.068 22.9223C256.762 22.9223 256.495 22.957 256.258 23.0215C256.07 23.076 255.942 23.1553 255.863 23.2594C255.784 23.3536 255.745 23.4726 255.745 23.6163C255.745 23.765 255.774 23.8939 255.843 24.0129C255.922 24.122 256.026 24.2013 256.159 24.2508C256.302 24.3054 256.465 24.3302 256.653 24.3302C256.85 24.3302 257.058 24.3054 257.285 24.2508C257.522 24.1864 257.744 24.0922 257.956 23.9732L258.035 24.6871H257.798C257.507 24.8854 257.206 25.0341 256.89 25.1233C256.574 25.2125 256.283 25.2621 256.021 25.2621C255.676 25.2621 255.389 25.2026 255.152 25.0836C254.915 24.9647 254.728 24.8011 254.599 24.5879C254.466 24.3797 254.402 24.1319 254.402 23.8543C254.402 23.4081 254.585 23.0512 254.955 22.7835C255.335 22.5208 255.789 22.3374 256.317 22.2283C256.841 22.1242 257.393 22.0598 257.976 22.0301L258.015 22.9223Z" fill="#F7F2EA"/>
<path d="M264.362 17.3704H265.685V25.1431H264.441V24.1517L264.362 24.0724V17.3704ZM260.551 22.7439C260.551 22.0697 260.675 21.5096 260.927 21.0585C261.188 20.5974 261.539 20.2554 261.973 20.0274C262.417 19.8043 262.921 19.6903 263.474 19.6903C263.829 19.6903 264.165 19.7399 264.481 19.8291C264.797 19.9084 265.103 20.0373 265.409 20.2058L264.817 21.1179C264.55 20.9593 264.293 20.8403 264.046 20.761C263.795 20.6817 263.533 20.6421 263.257 20.6421C263.084 20.6421 262.931 20.6619 262.802 20.7015C262.684 20.7412 262.556 20.7957 262.427 20.8602C262.279 20.9692 262.156 21.1378 262.052 21.3757C261.958 21.6137 261.914 21.9706 261.914 22.4464C261.914 22.9917 262.003 23.428 262.19 23.7551C262.373 24.0873 262.714 24.2508 263.217 24.2508C263.454 24.2508 263.701 24.2112 263.967 24.1319C264.229 24.0426 264.51 23.9237 264.817 23.775L264.501 24.5681H264.303C264.066 24.7812 263.81 24.9547 263.533 25.0836C263.257 25.2026 262.946 25.2621 262.605 25.2621C262.171 25.2621 261.795 25.1629 261.48 24.9647C261.173 24.7664 260.946 24.4838 260.788 24.112C260.63 23.7303 260.551 23.2743 260.551 22.7439Z" fill="#F7F2EA"/>
<path d="M268.774 20.8404C268.641 20.9494 268.528 21.0981 268.439 21.2964C268.345 21.4947 268.301 21.7673 268.301 22.1094C268.301 22.5753 268.345 22.957 268.439 23.2594C268.542 23.5668 268.735 23.8047 269.011 23.9732C269.288 24.1467 269.688 24.231 270.216 24.231C270.492 24.231 270.754 24.2112 271.006 24.1715C271.267 24.122 271.504 24.0625 271.717 23.9931L271.697 24.9448C271.43 25.039 271.144 25.1134 270.828 25.163C270.522 25.2274 270.196 25.2621 269.841 25.2621C269.219 25.2621 268.7 25.163 268.281 24.9647C267.856 24.7664 267.54 24.4789 267.333 24.0922C267.121 23.6956 267.017 23.2098 267.017 22.6249C267.017 21.9656 267.145 21.4154 267.412 20.9791C267.674 20.533 268.024 20.2009 268.459 19.9877C268.893 19.7795 269.357 19.6705 269.86 19.6705C270.334 19.6705 270.729 19.7647 271.045 19.9481C271.361 20.1364 271.588 20.3992 271.736 20.7412C271.879 21.0733 271.954 21.4699 271.954 21.9309V22.6051H268.083V21.8714H270.966L270.65 22.2878C270.675 22.2085 270.695 22.1242 270.71 22.0301C270.719 21.9408 270.729 21.8417 270.729 21.7326C270.729 21.4848 270.68 21.2766 270.591 21.1179C270.512 20.9494 270.384 20.8205 270.216 20.7412C270.058 20.652 269.846 20.6024 269.584 20.6024C269.396 20.6024 269.234 20.6322 269.09 20.6817C268.957 20.7214 268.853 20.7759 268.774 20.8404Z" fill="#F7F2EA"/>
<path d="M275.734 21.2171L275.832 21.2964V25.1431H274.529V19.7894H275.734V21.2171ZM273.186 24.0922H277.55L277.412 25.1431H273.325L273.186 24.0922ZM273.285 19.7894H275.536V20.8403H273.147L273.285 19.7894ZM278.399 20.9395C278.054 20.9296 277.728 20.9494 277.412 20.999C277.106 21.0535 276.81 21.1378 276.523 21.2567C276.247 21.3757 275.956 21.5244 275.655 21.693L275.576 21.0386H275.813C275.916 20.7759 276.079 20.5379 276.306 20.3248C276.528 20.1166 276.78 19.958 277.056 19.8489C277.343 19.7448 277.639 19.6903 277.945 19.6903C278.088 19.6903 278.226 19.7051 278.36 19.7299L278.399 20.9395Z" fill="#F7F2EA"/>
<path d="M278.882 26.313H285.141V26.9673H278.882V26.313Z" fill="#F7F2EA"/>
<path d="M288.882 19.6705C289.143 19.6705 289.4 19.6903 289.652 19.73C289.899 19.7597 290.136 19.8043 290.363 19.8688L290.402 20.9593C289.953 20.88 289.558 20.8205 289.217 20.7809C288.887 20.7412 288.566 20.7214 288.25 20.7214C287.998 20.7214 287.796 20.7412 287.638 20.7809C287.49 20.8106 287.386 20.8503 287.322 20.8998C287.268 20.9395 287.228 20.9791 287.203 21.0188C287.189 21.0585 287.184 21.113 287.184 21.1774C287.184 21.2716 287.223 21.3559 287.302 21.4352C287.381 21.5046 287.5 21.569 287.658 21.6335C287.816 21.688 288.043 21.7525 288.349 21.8318L288.684 21.8913C289.119 22.0102 289.464 22.1242 289.731 22.2283C289.992 22.3225 290.205 22.4663 290.363 22.6646C290.521 22.8529 290.6 23.1008 290.6 23.418C290.6 23.775 290.491 24.0922 290.284 24.3698C290.071 24.6474 289.756 24.8655 289.336 25.0242C288.911 25.1828 288.398 25.2621 287.796 25.2621C287.48 25.2621 287.174 25.2423 286.887 25.2026C286.611 25.163 286.34 25.1134 286.078 25.044L285.979 23.8344C286.423 23.9534 286.868 24.0526 287.302 24.1319C287.746 24.2112 288.141 24.2508 288.487 24.2508C288.694 24.2508 288.862 24.2409 288.981 24.2112C289.109 24.1715 289.217 24.1269 289.296 24.0724C289.336 24.0327 289.366 23.9881 289.395 23.9336C289.42 23.884 289.435 23.8245 289.435 23.7551C289.435 23.6262 289.38 23.5122 289.277 23.418C289.168 23.3288 289.025 23.2545 288.842 23.1999C288.67 23.1504 288.408 23.076 288.052 22.9818C287.855 22.9422 287.697 22.9124 287.579 22.8827C287.248 22.7935 286.966 22.6844 286.73 22.5654C286.502 22.4465 286.325 22.2977 286.196 22.1094C286.078 21.926 286.019 21.7029 286.019 21.4352C286.019 21.0535 286.142 20.7313 286.394 20.4636C286.641 20.2009 286.986 20.0026 287.421 19.8688C287.855 19.7399 288.339 19.6705 288.882 19.6705Z" fill="#F7F2EA"/>
<path d="M295.367 19.6705C295.629 19.6705 295.88 19.6903 296.117 19.73C296.364 19.7696 296.611 19.8192 296.848 19.8688L296.947 21.0585C296.601 21.0089 296.256 20.9692 295.9 20.9395C295.555 20.9147 295.254 20.8998 294.992 20.8998C294.715 20.8998 294.488 20.9197 294.321 20.9593C294.163 20.999 294.024 21.0585 293.906 21.1378C293.787 21.232 293.679 21.3708 293.59 21.5542C293.511 21.7277 293.471 21.9706 293.471 22.2878C293.471 22.7241 293.55 23.081 293.708 23.3586C293.866 23.6262 294.084 23.8245 294.36 23.9534C294.636 24.0724 294.952 24.1319 295.308 24.1319C295.555 24.1319 295.821 24.112 296.098 24.0724C296.384 24.0228 296.675 23.9633 296.966 23.8939L296.927 24.9052C296.7 25.0142 296.438 25.0985 296.137 25.163C295.831 25.2274 295.486 25.2621 295.091 25.2621C294.459 25.2621 293.916 25.163 293.471 24.9647C293.037 24.7565 292.706 24.4491 292.484 24.0526C292.257 23.6461 292.149 23.1504 292.149 22.5654C292.149 21.8913 292.292 21.346 292.583 20.9197C292.869 20.4834 293.259 20.1662 293.748 19.9679C294.232 19.7696 294.775 19.6705 295.367 19.6705Z" fill="#F7F2EA"/>
<path d="M300.806 21.2171L300.904 21.2964V25.1431H299.601V19.7894H300.806V21.2171ZM298.259 24.0922H302.622L302.484 25.1431H298.397L298.259 24.0922ZM298.357 19.7894H300.608V20.8403H298.219L298.357 19.7894ZM303.471 20.9395C303.126 20.9296 302.8 20.9494 302.484 20.999C302.178 21.0535 301.882 21.1378 301.596 21.2567C301.319 21.3757 301.028 21.5244 300.727 21.693L300.648 21.0386H300.885C300.988 20.7759 301.151 20.5379 301.378 20.3248C301.6 20.1166 301.852 19.958 302.129 19.8489C302.415 19.7448 302.711 19.6903 303.017 19.6903C303.16 19.6903 303.299 19.7051 303.432 19.7299L303.471 20.9395Z" fill="#F7F2EA"/>
<path d="M307.785 19.7894V25.1431H306.462V20.6024L306.679 20.8403H304.704L304.803 19.7894H307.785ZM304.665 24.0922H309.562L309.463 25.1431H304.764L304.665 24.0922ZM306.896 18.7583C306.723 18.7583 306.57 18.7286 306.442 18.6592C306.309 18.5947 306.205 18.5006 306.126 18.3816C306.057 18.2527 306.027 18.104 306.027 17.9454C306.027 17.6975 306.106 17.5042 306.264 17.3703C306.422 17.2266 306.63 17.1522 306.896 17.1522C307.158 17.1522 307.37 17.2266 307.528 17.3703C307.686 17.5042 307.765 17.6975 307.765 17.9454C307.765 18.1982 307.686 18.3965 307.528 18.5402C307.37 18.6889 307.158 18.7583 306.896 18.7583Z" fill="#F7F2EA"/>
<path d="M312.197 27.007H310.874V19.7894H312.137V20.7412L312.197 20.8205V27.007ZM316.027 22.1887C316.027 22.8628 315.894 23.4329 315.632 23.8939C315.366 24.3599 315.01 24.7019 314.566 24.925C314.132 25.1481 313.638 25.2621 313.085 25.2621C312.74 25.2621 312.404 25.2125 312.078 25.1233C311.762 25.034 311.456 24.9002 311.17 24.7267L311.762 23.8146C312.024 23.9732 312.281 24.0922 312.532 24.1715C312.779 24.2508 313.046 24.2905 313.322 24.2905C313.48 24.2905 313.623 24.2806 313.757 24.2508C313.885 24.2112 314.013 24.1517 314.132 24.0724C314.29 23.9831 314.413 23.8146 314.507 23.5767C314.596 23.3288 314.645 22.9719 314.645 22.5059C314.645 21.9656 314.551 21.5294 314.369 21.1972C314.181 20.8552 313.845 20.6817 313.362 20.6817C313.125 20.6817 312.868 20.7313 312.592 20.8205C312.325 20.8998 312.049 21.0138 311.762 21.1576L312.078 20.3843H312.276C312.513 20.1612 312.759 19.9877 313.026 19.8687C313.302 19.7498 313.609 19.6903 313.954 19.6903C314.389 19.6903 314.754 19.7894 315.06 19.9877C315.376 20.1761 315.613 20.4586 315.771 20.8403C315.939 21.2121 316.027 21.6632 316.027 22.1887Z" fill="#F7F2EA"/>
<path d="M319.669 20.0472V23.4775C319.669 23.6362 319.694 23.77 319.748 23.8741C319.798 23.9683 319.891 24.0426 320.025 24.0922C320.168 24.1467 320.365 24.1715 320.617 24.1715C320.814 24.1715 321.022 24.1616 321.249 24.1319C321.471 24.0922 321.688 24.0526 321.9 24.0129L321.802 25.0043C321.565 25.0836 321.313 25.1431 321.051 25.1828C320.785 25.2324 320.503 25.2621 320.202 25.2621C319.768 25.2621 319.417 25.2125 319.156 25.1233C318.889 25.0192 318.687 24.8606 318.544 24.6474C318.41 24.4243 318.346 24.1269 318.346 23.7551V20.0472H319.669ZM321.999 19.7894L321.802 20.8205H316.944V20.2058L319.215 18.5403H319.63V20.2455L319.274 19.7894H321.999Z" fill="#F7F2EA"/>
<path d="M325.878 25.3414C325.681 25.3414 325.493 25.2918 325.325 25.2026C325.167 25.1233 325.039 25.0043 324.95 24.8457C324.856 24.687 324.812 24.5036 324.812 24.2905C324.812 24.0823 324.856 23.8939 324.95 23.7353C325.039 23.5767 325.167 23.4577 325.325 23.3784C325.493 23.2991 325.681 23.2594 325.878 23.2594C326.076 23.2594 326.253 23.2991 326.411 23.3784C326.569 23.4577 326.693 23.5767 326.786 23.7353C326.89 23.8939 326.944 24.0823 326.944 24.2905C326.944 24.5036 326.89 24.687 326.786 24.8457C326.693 25.0043 326.569 25.1233 326.411 25.2026C326.253 25.2918 326.076 25.3414 325.878 25.3414Z" fill="#F7F2EA"/>
<path d="M332.758 19.6705C333.02 19.6705 333.277 19.6903 333.528 19.73C333.775 19.7597 334.012 19.8043 334.239 19.8688L334.279 20.9593C333.829 20.88 333.435 20.8205 333.094 20.7809C332.763 20.7412 332.442 20.7214 332.126 20.7214C331.875 20.7214 331.672 20.7412 331.514 20.7809C331.366 20.8106 331.263 20.8503 331.198 20.8998C331.144 20.9395 331.105 20.9791 331.08 21.0188C331.065 21.0585 331.06 21.113 331.06 21.1774C331.06 21.2716 331.1 21.3559 331.179 21.4352C331.258 21.5046 331.376 21.569 331.534 21.6335C331.692 21.688 331.919 21.7525 332.225 21.8318L332.561 21.8913C332.995 22.0102 333.341 22.1242 333.607 22.2283C333.869 22.3225 334.081 22.4663 334.239 22.6646C334.397 22.8529 334.476 23.1008 334.476 23.418C334.476 23.775 334.368 24.0922 334.16 24.3698C333.948 24.6474 333.632 24.8655 333.212 25.0242C332.788 25.1828 332.274 25.2621 331.672 25.2621C331.356 25.2621 331.05 25.2423 330.764 25.2026C330.488 25.163 330.216 25.1134 329.954 25.044L329.856 23.8344C330.3 23.9534 330.744 24.0526 331.179 24.1319C331.623 24.2112 332.018 24.2508 332.363 24.2508C332.571 24.2508 332.739 24.2409 332.857 24.2112C332.985 24.1715 333.094 24.1269 333.173 24.0724C333.212 24.0327 333.242 23.9881 333.272 23.9336C333.296 23.884 333.311 23.8245 333.311 23.7551C333.311 23.6262 333.257 23.5122 333.153 23.418C333.045 23.3288 332.901 23.2545 332.719 23.1999C332.546 23.1504 332.284 23.076 331.929 22.9818C331.731 22.9422 331.574 22.9124 331.455 22.8827C331.124 22.7935 330.843 22.6844 330.606 22.5654C330.379 22.4465 330.201 22.2977 330.073 22.1094C329.954 21.926 329.895 21.7029 329.895 21.4352C329.895 21.0535 330.019 20.7313 330.27 20.4636C330.517 20.2009 330.863 20.0026 331.297 19.8688C331.731 19.7399 332.215 19.6705 332.758 19.6705Z" fill="#F7F2EA"/>
<path d="M337.368 25.1431H336.064V17.3704H337.368V25.1431ZM339.461 25.1431V21.455C339.461 21.2716 339.426 21.1279 339.362 21.0188C339.308 20.9147 339.224 20.8354 339.105 20.7809C338.987 20.7313 338.849 20.7015 338.691 20.7015C338.399 20.7015 338.118 20.7709 337.842 20.8998C337.565 21.0188 337.308 21.1923 337.071 21.4154L337.229 20.5231H337.427C337.649 20.2604 337.921 20.0571 338.236 19.9084C338.562 19.7646 338.913 19.6903 339.283 19.6903C339.757 19.6903 340.117 19.8192 340.369 20.067C340.631 20.305 340.769 20.652 340.784 21.0981L340.803 25.1431H339.461Z" fill="#F7F2EA"/>
</svg>
