<svg width="533" height="262" viewBox="0 0 533 262" fill="none" xmlns="http://www.w3.org/2000/svg">
<path d="M3.90515 3.53059H528.918V257.925H3.90515V3.53059Z" fill="#241F23"/>
<path d="M532.077 0.358109H0.74585V261.092H532.077V0.358109ZM525.759 254.747H7.06447V6.70321H525.759V254.747Z" fill="#F7F2EA"/>
<path d="M519.43 249.007H13.3288V35.7122H519.43V249.007ZM36.5843 21.2324C36.5843 25.5749 33.0844 29.0944 28.7601 29.0944C24.4358 29.0944 20.9309 25.5749 20.9309 21.2324C20.9309 16.895 24.4358 13.3754 28.7601 13.3754C33.0844 13.3754 36.5843 16.895 36.5843 21.2324ZM64.7367 21.2324C64.7367 25.5749 61.2318 29.0944 56.9075 29.0944C52.5882 29.0944 49.0833 25.5749 49.0833 21.2324C49.0833 16.895 52.5882 13.3754 56.9075 13.3754C61.2318 13.3754 64.7367 16.895 64.7367 21.2324ZM92.3017 21.2324C92.3017 25.5749 88.7968 29.0944 84.4725 29.0944C80.1531 29.0944 76.6483 25.5749 76.6483 21.2324C76.6483 16.895 80.1531 13.3754 84.4725 13.3754C88.7968 13.3754 92.3017 16.895 92.3017 21.2324Z" fill="#F7F2EA"/>
<path d="M224.824 17.0934V24.8661H223.521V17.0934H224.824ZM228.576 19.5124C228.27 19.9635 227.954 20.3651 227.628 20.722C227.312 21.0789 226.957 21.4556 226.562 21.8522V21.9117C227.021 22.4024 227.44 22.8783 227.825 23.3393C228.22 23.7904 228.6 24.301 228.971 24.8661H227.332C227.041 24.4051 226.73 23.9689 226.404 23.5574C226.088 23.1361 225.737 22.7197 225.357 22.3083L225.969 22.5462H224.607V21.5151H225.989L225.278 21.7729C225.673 21.3763 226.014 20.9996 226.305 20.6427C226.606 20.2758 226.887 19.8991 227.154 19.5124H228.576Z" fill="#F7F2EA"/>
<path d="M233.106 24.8661V21.1781C233.106 21.0194 233.067 20.8955 232.988 20.8013C232.909 20.7121 232.795 20.6427 232.652 20.603C232.504 20.5535 232.341 20.5237 232.158 20.5237C231.843 20.5237 231.477 20.5634 231.072 20.6427C230.678 20.722 230.253 20.836 229.809 20.9798L229.947 19.7702C230.312 19.6513 230.697 19.562 231.092 19.4926C231.497 19.4282 231.902 19.3935 232.297 19.3935C232.78 19.3935 233.175 19.448 233.481 19.5521C233.797 19.6612 234.034 19.8297 234.192 20.0677C234.35 20.2957 234.429 20.5832 234.429 20.9401V24.8661H233.106ZM233.225 22.6454C232.909 22.6354 232.593 22.6354 232.277 22.6454C231.971 22.6454 231.704 22.6801 231.467 22.7445C231.28 22.799 231.151 22.8783 231.072 22.9824C230.993 23.0766 230.954 23.1956 230.954 23.3394C230.954 23.4881 230.984 23.617 231.053 23.7359C231.132 23.845 231.235 23.9243 231.369 23.9739C231.512 24.0284 231.675 24.0532 231.862 24.0532C232.06 24.0532 232.267 24.0284 232.494 23.9739C232.731 23.9094 232.953 23.8152 233.166 23.6963L233.244 24.4101H233.008C232.716 24.6084 232.415 24.7571 232.099 24.8463C231.783 24.9355 231.492 24.9851 231.23 24.9851C230.885 24.9851 230.599 24.9256 230.362 24.8067C230.125 24.6877 229.937 24.5241 229.809 24.311C229.675 24.1028 229.611 23.8549 229.611 23.5773C229.611 23.1312 229.794 22.7742 230.164 22.5066C230.544 22.2438 230.998 22.0604 231.527 21.9514C232.05 21.8473 232.603 21.7828 233.185 21.7531L233.225 22.6454Z" fill="#F7F2EA"/>
<path d="M237.261 26.73H235.939V19.5124H237.202V20.4642L237.261 20.5435V26.73ZM241.092 21.9117C241.092 22.5859 240.959 23.1559 240.697 23.6169C240.431 24.0829 240.075 24.4249 239.631 24.648C239.197 24.8711 238.703 24.9851 238.15 24.9851C237.805 24.9851 237.469 24.9355 237.143 24.8463C236.827 24.7571 236.521 24.6232 236.235 24.4497L236.827 23.5376C237.089 23.6962 237.345 23.8152 237.597 23.8945C237.844 23.9738 238.111 24.0135 238.387 24.0135C238.545 24.0135 238.688 24.0036 238.821 23.9738C238.95 23.9342 239.078 23.8747 239.197 23.7954C239.355 23.7062 239.478 23.5376 239.572 23.2997C239.661 23.0518 239.71 22.6949 239.71 22.2289C239.71 21.6886 239.616 21.2524 239.434 20.9203C239.246 20.5782 238.91 20.4047 238.426 20.4047C238.19 20.4047 237.933 20.4543 237.656 20.5435C237.39 20.6228 237.113 20.7368 236.827 20.8806L237.143 20.1073H237.34C237.577 19.8842 237.824 19.7107 238.091 19.5918C238.367 19.4728 238.673 19.4133 239.019 19.4133C239.453 19.4133 239.819 19.5124 240.125 19.7107C240.441 19.8991 240.677 20.1817 240.835 20.5634C241.003 20.9351 241.092 21.3862 241.092 21.9117Z" fill="#F7F2EA"/>
<path d="M245.386 19.5125V24.8662H244.063V20.3254L244.28 20.5634H242.305L242.404 19.5125H245.386ZM242.266 23.8153H247.163L247.064 24.8662H242.365L242.266 23.8153ZM244.497 18.4814C244.324 18.4814 244.171 18.4517 244.043 18.3823C243.91 18.3178 243.806 18.2236 243.727 18.1047C243.658 17.9758 243.628 17.8271 243.628 17.6684C243.628 17.4206 243.707 17.2272 243.865 17.0934C244.023 16.9496 244.23 16.8753 244.497 16.8753C244.759 16.8753 244.971 16.9496 245.129 17.0934C245.287 17.2272 245.366 17.4206 245.366 17.6684C245.366 17.9212 245.287 18.1195 245.129 18.2633C244.971 18.412 244.759 18.4814 244.497 18.4814Z" fill="#F7F2EA"/>
<path d="M252.108 17.0934H253.431V24.8661H252.187V23.8747L252.108 23.7954V17.0934ZM248.297 22.4669C248.297 21.7927 248.42 21.2326 248.672 20.7815C248.934 20.3205 249.284 19.9784 249.719 19.7504C250.163 19.5273 250.666 19.4133 251.219 19.4133C251.575 19.4133 251.91 19.4629 252.226 19.5521C252.542 19.6314 252.848 19.7603 253.154 19.9288L252.562 20.8409C252.295 20.6823 252.039 20.5633 251.792 20.484C251.54 20.4047 251.278 20.3651 251.002 20.3651C250.829 20.3651 250.676 20.3849 250.548 20.4245C250.429 20.4642 250.301 20.5187 250.173 20.5832C250.025 20.6922 249.901 20.8608 249.798 21.0987C249.704 21.3367 249.659 21.6936 249.659 22.1695C249.659 22.7147 249.748 23.151 249.936 23.4781C250.118 23.8103 250.459 23.9738 250.963 23.9738C251.199 23.9738 251.446 23.9342 251.713 23.8549C251.974 23.7656 252.256 23.6467 252.562 23.498L252.246 24.2911H252.049C251.812 24.5043 251.555 24.6778 251.278 24.8066C251.002 24.9256 250.691 24.9851 250.35 24.9851C249.916 24.9851 249.541 24.886 249.225 24.6877C248.919 24.4894 248.692 24.2068 248.534 23.835C248.376 23.4533 248.297 22.9973 248.297 22.4669Z" fill="#F7F2EA"/>
<path d="M256.52 20.5634C256.387 20.6724 256.273 20.8211 256.184 21.0194C256.09 21.2177 256.046 21.4904 256.046 21.8324C256.046 22.2984 256.09 22.6801 256.184 22.9824C256.288 23.2898 256.48 23.5277 256.757 23.6963C257.033 23.8698 257.433 23.954 257.961 23.954C258.238 23.954 258.499 23.9342 258.751 23.8946C259.013 23.845 259.25 23.7855 259.462 23.7161L259.442 24.6679C259.176 24.762 258.889 24.8364 258.573 24.886C258.267 24.9504 257.942 24.9851 257.586 24.9851C256.964 24.9851 256.446 24.886 256.026 24.6877C255.602 24.4894 255.286 24.2019 255.078 23.8152C254.866 23.4187 254.762 22.9329 254.762 22.3479C254.762 21.6886 254.891 21.1384 255.157 20.7022C255.419 20.256 255.77 19.9239 256.204 19.7107C256.638 19.5026 257.102 19.3935 257.606 19.3935C258.08 19.3935 258.475 19.4877 258.791 19.6711C259.107 19.8595 259.334 20.1222 259.482 20.4642C259.625 20.7964 259.699 21.1929 259.699 21.6539V22.3281H255.829V21.5945H258.712L258.396 22.0108C258.42 21.9315 258.44 21.8473 258.455 21.7531C258.465 21.6639 258.475 21.5647 258.475 21.4557C258.475 21.2078 258.425 20.9996 258.336 20.841C258.257 20.6724 258.129 20.5435 257.961 20.4642C257.803 20.375 257.591 20.3254 257.329 20.3254C257.142 20.3254 256.979 20.3552 256.836 20.4047C256.702 20.4444 256.599 20.4989 256.52 20.5634Z" fill="#F7F2EA"/>
<path d="M262.176 19.5125C262.294 20.2263 262.462 20.9203 262.689 21.5944C262.926 22.2587 263.193 22.8982 263.499 23.5178H263.617C263.918 22.8982 264.18 22.2587 264.407 21.5944C264.629 20.9203 264.807 20.2263 264.94 19.5125H266.204C266.016 20.4246 265.75 21.3317 265.394 22.2289C265.049 23.1163 264.614 23.9937 264.091 24.8661H262.926C262.398 23.9937 261.959 23.1163 261.603 22.2289C261.258 21.3466 260.991 20.4394 260.794 19.5125H262.176Z" fill="#F7F2EA"/>
<path d="M267.595 24.8661V17.4503H268.918V24.8661H267.595ZM272.215 24.8661H268.286V23.7557H272.373L272.215 24.8661Z" fill="#F7F2EA"/>
<path d="M275.976 24.9851C275.487 24.9851 275.048 24.8761 274.653 24.6679C274.258 24.4597 273.947 24.1474 273.725 23.7359C273.512 23.3146 273.409 22.804 273.409 22.2091C273.409 21.5647 273.532 21.0293 273.784 20.603C274.046 20.1817 274.381 19.8793 274.791 19.6909C275.196 19.4926 275.64 19.3935 276.114 19.3935C276.598 19.3935 277.032 19.5026 277.417 19.7107C277.797 19.9239 278.093 20.2412 278.306 20.6625C278.513 21.0888 278.622 21.5895 278.622 22.1695C278.622 22.8189 278.493 23.3542 278.246 23.7756C277.995 24.2019 277.664 24.5092 277.259 24.7075C276.864 24.8909 276.435 24.9851 275.976 24.9851ZM276.094 24.0334C276.277 24.0334 276.435 24.0234 276.568 23.9937C276.711 23.954 276.83 23.9045 276.923 23.8351C277.042 23.7458 277.141 23.5872 277.22 23.3592C277.299 23.1361 277.338 22.8387 277.338 22.4669C277.338 22.0307 277.304 21.6639 277.239 21.3565C277.17 21.0541 277.032 20.8112 276.825 20.6229C276.627 20.4394 276.331 20.3453 275.936 20.3453C275.749 20.3453 275.591 20.3651 275.462 20.4047C275.329 20.4345 275.211 20.4791 275.107 20.5435C275.028 20.5981 274.954 20.6823 274.89 20.8013C274.835 20.9104 274.791 21.0541 274.751 21.2375C274.712 21.4259 274.692 21.649 274.692 21.9117C274.692 22.3479 274.722 22.7197 274.791 23.0221C274.855 23.3146 274.988 23.5575 275.186 23.7558C275.393 23.9441 275.699 24.0334 276.094 24.0334Z" fill="#F7F2EA"/>
<path d="M281.849 22.9428C281.424 22.9428 281.049 22.8734 280.723 22.7247C280.393 22.5809 280.136 22.3777 279.953 22.11C279.766 21.8473 279.677 21.5548 279.677 21.2375C279.677 20.8806 279.785 20.5634 280.012 20.2858C280.235 19.9983 280.531 19.7801 280.901 19.6314C281.281 19.4728 281.696 19.3935 282.145 19.3935C282.486 19.3935 282.797 19.4431 283.073 19.5323C283.359 19.6265 283.606 19.7603 283.804 19.9289L283.863 20.1866C283.873 20.1866 283.883 20.1965 283.883 20.2065C284.026 20.3254 284.139 20.4642 284.218 20.6228C284.307 20.7815 284.357 20.9698 284.357 21.178C284.357 21.535 284.243 21.8473 284.021 22.11C283.794 22.3777 283.493 22.5809 283.113 22.7247C282.727 22.8734 282.308 22.9428 281.849 22.9428ZM283.488 19.8099C283.71 19.7058 283.952 19.6066 284.218 19.5125C284.48 19.4084 284.737 19.3489 284.988 19.334L285.166 20.1866L283.744 20.2858L283.488 19.8099ZM281.77 22.7048L281.612 23.26C281.582 23.3691 281.577 23.4484 281.592 23.498C281.602 23.5376 281.632 23.5723 281.671 23.5971C281.711 23.6269 281.76 23.6467 281.829 23.6566L281.869 23.6764L283.705 23.9937H283.744C283.991 24.0482 284.208 24.1127 284.396 24.192C284.593 24.2614 284.756 24.3803 284.89 24.5489C285.018 24.7075 285.087 24.9157 285.087 25.1834C285.087 25.5899 284.934 25.9369 284.633 26.2145C284.342 26.502 283.947 26.7201 283.448 26.8688C282.945 27.0126 282.402 27.0869 281.809 27.0869C281.36 27.0869 280.95 27.0374 280.585 26.9481C280.215 26.8539 279.924 26.7151 279.716 26.5317C279.504 26.3434 279.4 26.1153 279.4 25.8377C279.4 25.6394 279.46 25.4511 279.578 25.2825C279.697 25.109 279.894 24.9455 280.17 24.7868L281.059 24.2316L281.553 24.5885C281.498 24.6183 281.434 24.6579 281.355 24.7075C281.207 24.7868 281.089 24.8661 281 24.9455C280.906 25.0248 280.827 25.114 280.763 25.2231C280.694 25.342 280.664 25.461 280.664 25.58C280.664 25.7386 280.723 25.8625 280.842 25.9567C280.96 26.0608 281.118 26.1352 281.316 26.1748C281.523 26.2145 281.775 26.2343 282.066 26.2343C282.421 26.2343 282.737 26.1996 283.014 26.1352C283.29 26.0806 283.498 26.0013 283.646 25.8972C283.804 25.7882 283.883 25.6642 283.883 25.5205C283.883 25.3866 283.814 25.2825 283.685 25.2032C283.567 25.1338 283.354 25.0743 283.053 25.0248L281.671 24.767C281.444 24.7273 281.256 24.6679 281.098 24.5885C280.941 24.5092 280.812 24.42 280.723 24.3109C280.63 24.2068 280.585 24.0928 280.585 23.9739C280.585 23.8846 280.605 23.7855 280.644 23.6764C280.684 23.5723 280.728 23.4534 280.783 23.3195C280.822 23.2402 280.847 23.1807 280.862 23.1411L281.098 22.5859L281.77 22.7048ZM283.132 21.3168C283.132 20.9897 283.034 20.7319 282.836 20.5435C282.649 20.3601 282.328 20.2659 281.869 20.2659C281.671 20.2659 281.503 20.2808 281.375 20.3056C281.256 20.3353 281.168 20.375 281.118 20.4246C281.049 20.4791 281 20.5584 280.96 20.6625C280.931 20.7567 280.921 20.8905 280.921 21.0591C280.921 21.3912 281.019 21.649 281.217 21.8324C281.414 22.0208 281.74 22.11 282.204 22.11C282.402 22.11 282.56 22.1001 282.678 22.0703C282.797 22.0455 282.885 22.0059 282.955 21.9514C283.019 21.9018 283.063 21.8274 283.093 21.7332C283.117 21.6291 283.132 21.4903 283.132 21.3168Z" fill="#F7F2EA"/>
<path d="M288.512 24.9851C288.023 24.9851 287.584 24.8761 287.189 24.6679C286.794 24.4597 286.483 24.1474 286.261 23.7359C286.048 23.3146 285.945 22.804 285.945 22.2091C285.945 21.5647 286.068 21.0293 286.32 20.603C286.582 20.1817 286.917 19.8793 287.327 19.6909C287.732 19.4926 288.176 19.3935 288.65 19.3935C289.134 19.3935 289.568 19.5026 289.953 19.7107C290.333 19.9239 290.629 20.2412 290.842 20.6625C291.049 21.0888 291.158 21.5895 291.158 22.1695C291.158 22.8189 291.029 23.3542 290.782 23.7756C290.531 24.2019 290.2 24.5092 289.795 24.7075C289.4 24.8909 288.971 24.9851 288.512 24.9851ZM288.63 24.0334C288.813 24.0334 288.971 24.0234 289.104 23.9937C289.247 23.954 289.366 23.9045 289.459 23.8351C289.578 23.7458 289.677 23.5872 289.756 23.3592C289.835 23.1361 289.874 22.8387 289.874 22.4669C289.874 22.0307 289.84 21.6639 289.775 21.3565C289.706 21.0541 289.568 20.8112 289.361 20.6229C289.163 20.4394 288.867 20.3453 288.472 20.3453C288.285 20.3453 288.127 20.3651 287.998 20.4047C287.865 20.4345 287.747 20.4791 287.643 20.5435C287.564 20.5981 287.49 20.6823 287.426 20.8013C287.371 20.9104 287.327 21.0541 287.287 21.2375C287.248 21.4259 287.228 21.649 287.228 21.9117C287.228 22.3479 287.258 22.7197 287.327 23.0221C287.391 23.3146 287.524 23.5575 287.722 23.7558C287.929 23.9441 288.235 24.0334 288.63 24.0334Z" fill="#F7F2EA"/>
<path d="M294.819 25.0644C294.622 25.0644 294.434 25.0148 294.267 24.9256C294.109 24.8463 293.98 24.7273 293.891 24.5687C293.798 24.4101 293.753 24.2267 293.753 24.0135C293.753 23.8053 293.798 23.6169 293.891 23.4583C293.98 23.2997 294.109 23.1807 294.267 23.1014C294.434 23.0221 294.622 22.9824 294.819 22.9824C295.017 22.9824 295.195 23.0221 295.353 23.1014C295.511 23.1807 295.634 23.2997 295.728 23.4583C295.831 23.6169 295.886 23.8053 295.886 24.0135C295.886 24.2267 295.831 24.4101 295.728 24.5687C295.634 24.7273 295.511 24.8463 295.353 24.9256C295.195 25.0148 295.017 25.0644 294.819 25.0644Z" fill="#F7F2EA"/>
<path d="M302.055 24.8661V21.1781C302.055 21.0194 302.015 20.8955 301.936 20.8013C301.857 20.7121 301.744 20.6427 301.601 20.603C301.453 20.5535 301.29 20.5237 301.107 20.5237C300.791 20.5237 300.426 20.5634 300.021 20.6427C299.626 20.722 299.202 20.836 298.757 20.9798L298.896 19.7702C299.261 19.6513 299.646 19.562 300.041 19.4926C300.446 19.4282 300.85 19.3935 301.245 19.3935C301.729 19.3935 302.124 19.448 302.43 19.5521C302.746 19.6612 302.983 19.8297 303.141 20.0677C303.299 20.2957 303.378 20.5832 303.378 20.9401V24.8661H302.055ZM302.173 22.6454C301.857 22.6354 301.542 22.6354 301.226 22.6454C300.92 22.6454 300.653 22.6801 300.416 22.7445C300.228 22.799 300.1 22.8783 300.021 22.9824C299.942 23.0766 299.903 23.1956 299.903 23.3394C299.903 23.4881 299.932 23.617 300.001 23.7359C300.08 23.845 300.184 23.9243 300.317 23.9739C300.46 24.0284 300.623 24.0532 300.811 24.0532C301.008 24.0532 301.216 24.0284 301.443 23.9739C301.68 23.9094 301.902 23.8152 302.114 23.6963L302.193 24.4101H301.956C301.665 24.6084 301.364 24.7571 301.048 24.8463C300.732 24.9355 300.441 24.9851 300.179 24.9851C299.834 24.9851 299.547 24.9256 299.31 24.8067C299.073 24.6877 298.886 24.5241 298.757 24.311C298.624 24.1028 298.56 23.8549 298.56 23.5773C298.56 23.1312 298.743 22.7742 299.113 22.5066C299.493 22.2438 299.947 22.0604 300.475 21.9514C300.999 21.8473 301.551 21.7828 302.134 21.7531L302.173 22.6454Z" fill="#F7F2EA"/>
<path d="M308.066 19.5125V24.8662H306.743V20.3254L306.96 20.5634H304.986L305.085 19.5125H308.066ZM304.946 23.8153H309.843L309.745 24.8662H305.045L304.946 23.8153ZM307.178 18.4814C307.005 18.4814 306.852 18.4517 306.724 18.3823C306.59 18.3178 306.487 18.2236 306.408 18.1047C306.338 17.9758 306.309 17.8271 306.309 17.6684C306.309 17.4206 306.388 17.2272 306.546 17.0934C306.704 16.9496 306.911 16.8753 307.178 16.8753C307.439 16.8753 307.652 16.9496 307.81 17.0934C307.968 17.2272 308.046 17.4206 308.046 17.6684C308.046 17.9212 307.968 18.1195 307.81 18.2633C307.652 18.412 307.439 18.4814 307.178 18.4814Z" fill="#F7F2EA"/>
<path d="M436.597 115.115C436.543 115.08 436.488 115.051 436.434 115.016C436.38 114.981 436.325 114.952 436.271 114.917C436.217 114.887 436.163 114.852 436.108 114.823C436.059 114.788 436.005 114.753 435.95 114.724C435.896 114.689 435.842 114.654 435.787 114.624C435.733 114.59 435.679 114.555 435.625 114.525C435.57 114.491 435.516 114.461 435.462 114.426C435.407 114.391 435.353 114.362 435.299 114.327C435.244 114.297 435.19 114.263 435.136 114.233C435.086 114.198 435.032 114.163 434.978 114.134C434.924 114.099 434.869 114.064 434.815 114.034C434.761 114 434.706 113.965 434.652 113.935C434.598 113.901 434.543 113.871 434.489 113.836C434.435 113.802 434.381 113.772 434.326 113.737C434.272 113.707 434.218 113.673 434.163 113.638C434.109 113.608 434.055 113.573 434 113.544C433.946 113.509 433.892 113.474 433.838 113.445C433.788 113.41 433.734 113.375 433.68 113.345C433.625 113.311 433.571 113.281 433.517 113.246C433.462 113.212 433.408 113.182 433.354 113.147C433.299 113.117 433.245 113.083 433.191 113.048C433.137 113.018 433.082 112.984 433.028 112.949C432.974 112.919 432.919 112.884 432.865 112.855C432.816 112.82 432.761 112.785 432.707 112.756C432.653 112.721 432.598 112.686 432.544 112.656C432.49 112.622 432.436 112.592 432.381 112.557C432.327 112.523 432.273 112.493 432.218 112.458C432.164 112.423 432.11 112.394 432.055 112.359C432.001 112.329 431.947 112.295 431.893 112.265C431.838 112.23 431.784 112.195 431.73 112.166C431.675 112.131 431.626 112.096 431.567 112.067C431.517 112.032 431.463 111.997 431.409 111.967C431.355 111.933 431.3 111.903 431.246 111.868C431.192 111.834 431.137 111.804 431.083 111.769C431.029 111.739 430.974 111.705 430.92 111.675C430.866 111.64 430.812 111.606 430.757 111.576C430.703 111.541 430.649 111.506 430.594 111.477C430.545 111.442 430.491 111.407 430.436 111.377C430.382 111.343 430.328 111.313 430.269 111.278C430.219 111.244 430.165 111.214 430.111 111.179C430.056 111.149 430.002 111.115 429.948 111.085C429.893 111.05 429.839 111.016 429.785 110.986C429.73 110.951 429.676 110.916 429.622 110.887C429.568 110.852 429.513 110.817 429.459 110.788C429.405 110.753 429.355 110.723 429.296 110.688C429.247 110.654 429.192 110.624 429.138 110.589C429.084 110.56 429.029 110.525 428.975 110.495C428.921 110.46 428.867 110.426 428.812 110.396C428.758 110.361 428.704 110.327 428.649 110.297C428.595 110.262 428.541 110.227 428.486 110.198C428.432 110.163 428.378 110.133 428.324 110.099C428.269 110.064 428.215 110.034 428.161 109.999C428.106 109.97 428.057 109.935 428.003 109.905C427.948 109.871 427.894 109.836 427.84 109.806C427.785 109.771 427.731 109.737 427.677 109.707C427.623 109.672 427.568 109.638 427.514 109.608C427.46 109.573 427.405 109.543 427.351 109.509C427.297 109.474 427.242 109.444 427.188 109.41C427.134 109.38 427.085 109.345 427.025 109.315C426.976 109.281 426.922 109.246 426.867 109.216C426.813 109.181 426.759 109.147 426.704 109.117C426.65 109.082 426.596 109.048 426.542 109.018C426.487 108.983 426.433 108.953 426.379 108.919C426.324 108.884 426.27 108.854 426.216 108.82C426.161 108.79 426.107 108.755 426.053 108.72C425.999 108.691 425.944 108.656 425.89 108.626C425.836 108.592 425.786 108.557 425.732 108.527C425.678 108.492 425.623 108.458 425.569 108.428C425.515 108.393 425.46 108.364 425.406 108.329C425.352 108.294 425.298 108.264 425.243 108.23C424.305 107.645 423.185 107.308 421.965 107.308H419.226C417.202 107.308 415.286 107.917 413.524 109.127L399.914 118.531L399.717 118.144C399.352 117.425 398.542 116.186 397.037 115.304C396.982 115.269 396.928 115.239 396.874 115.204C396.819 115.17 396.765 115.14 396.711 115.105C396.656 115.075 396.602 115.041 396.548 115.011C396.494 114.976 396.444 114.942 396.385 114.912C396.336 114.877 396.281 114.843 396.227 114.813C396.173 114.778 396.118 114.743 396.064 114.714C396.01 114.679 395.955 114.649 395.901 114.614C395.847 114.58 395.793 114.55 395.738 114.515C395.684 114.486 395.63 114.451 395.575 114.421C395.521 114.386 395.467 114.352 395.412 114.322C395.358 114.287 395.304 114.253 395.25 114.223C395.195 114.188 395.146 114.153 395.087 114.124C395.037 114.089 394.983 114.059 394.929 114.025C394.874 113.99 394.82 113.96 394.766 113.925C394.711 113.896 394.657 113.861 394.603 113.831C394.549 113.797 394.494 113.762 394.44 113.732C394.386 113.697 394.331 113.663 394.277 113.633C394.223 113.598 394.173 113.564 394.114 113.534C394.065 113.499 394.011 113.469 393.956 113.435C393.902 113.405 393.848 113.37 393.793 113.336C393.739 113.306 393.685 113.271 393.63 113.241C393.576 113.207 393.522 113.172 393.468 113.142C393.413 113.108 393.359 113.073 393.305 113.043C393.25 113.008 393.196 112.974 393.142 112.944C393.087 112.909 393.033 112.879 392.979 112.845C392.925 112.815 392.875 112.78 392.816 112.746C392.767 112.716 392.712 112.681 392.658 112.651C392.604 112.617 392.549 112.582 392.495 112.552C392.441 112.518 392.386 112.483 392.332 112.453C392.278 112.418 392.224 112.389 392.169 112.354C392.115 112.319 392.061 112.29 392.006 112.255C391.952 112.225 391.903 112.19 391.843 112.156C391.794 112.126 391.74 112.091 391.681 112.057C391.631 112.027 391.577 111.992 391.523 111.962C391.468 111.928 391.414 111.893 391.36 111.863C391.305 111.829 391.251 111.799 391.197 111.764C391.142 111.729 391.088 111.7 391.034 111.665C390.98 111.63 390.925 111.601 390.871 111.566C390.817 111.536 390.762 111.501 390.708 111.467C390.654 111.437 390.604 111.402 390.545 111.373C390.496 111.338 390.441 111.303 390.387 111.273C390.333 111.239 390.279 111.204 390.224 111.174C390.17 111.14 390.116 111.11 390.061 111.075C390.007 111.04 389.953 111.011 389.898 110.976C389.844 110.941 389.79 110.912 389.736 110.877C389.681 110.847 389.632 110.812 389.573 110.778C389.523 110.748 389.469 110.713 389.41 110.683C389.36 110.649 389.306 110.614 389.247 110.584C389.198 110.55 389.143 110.515 389.089 110.485C389.035 110.451 388.98 110.421 388.926 110.386C388.872 110.351 388.817 110.322 388.763 110.287C388.709 110.257 388.654 110.222 388.6 110.188C388.546 110.158 388.492 110.123 388.437 110.094C388.383 110.059 388.334 110.024 388.274 109.994C388.225 109.96 388.171 109.925 388.116 109.895C388.062 109.861 388.008 109.831 387.954 109.796C387.899 109.761 387.845 109.732 387.791 109.697C387.736 109.667 387.682 109.633 387.628 109.598C387.573 109.568 387.519 109.533 387.465 109.504C387.411 109.469 387.356 109.434 387.302 109.405C387.248 109.37 387.193 109.335 387.139 109.305C387.09 109.271 387.035 109.241 386.976 109.206C386.927 109.172 386.872 109.142 386.818 109.107C386.764 109.077 386.71 109.043 386.655 109.008C386.601 108.978 386.547 108.944 386.492 108.914C386.438 108.879 386.384 108.844 386.329 108.815C386.275 108.78 386.221 108.745 386.167 108.716C386.112 108.681 386.063 108.651 386.004 108.616C385.954 108.582 385.9 108.552 385.846 108.517C385.791 108.487 385.737 108.453 385.683 108.418C384.651 107.784 383.284 107.308 381.477 107.308H364.145C363.429 107.308 362.743 107.402 362.106 107.575C361.504 107.402 360.858 107.308 360.181 107.308H330.696C324.57 107.308 318.587 109.647 313.789 113.365C313.734 113.331 313.68 113.301 313.626 113.266C313.572 113.231 313.517 113.202 313.463 113.167C313.409 113.137 313.354 113.103 313.3 113.068C313.246 113.038 313.196 113.003 313.142 112.974C313.088 112.939 313.034 112.904 312.979 112.875C312.925 112.84 312.871 112.805 312.816 112.775C312.762 112.741 312.708 112.711 312.653 112.676C312.599 112.642 312.545 112.612 312.49 112.577C312.436 112.547 312.382 112.513 312.328 112.478C312.273 112.448 312.224 112.414 312.165 112.384C312.11 112.349 312.056 112.314 312.002 112.285C311.947 112.25 311.898 112.215 311.844 112.185C311.79 112.151 311.735 112.121 311.681 112.086C311.627 112.052 311.572 112.022 311.518 111.987C311.464 111.957 311.409 111.923 311.355 111.888C311.301 111.858 311.247 111.824 311.192 111.789C311.138 111.759 311.084 111.724 311.029 111.695C310.975 111.66 310.926 111.625 310.871 111.596C310.817 111.561 310.763 111.531 310.708 111.496C310.654 111.462 310.6 111.432 310.546 111.397C310.491 111.363 310.437 111.333 310.383 111.298C310.328 111.268 310.274 111.234 310.22 111.199C310.165 111.169 310.111 111.135 310.057 111.1C310.003 111.07 309.948 111.035 309.894 111.006C309.84 110.971 309.785 110.936 309.731 110.907C309.682 110.872 309.627 110.837 309.573 110.807C309.519 110.773 309.464 110.743 309.41 110.708C309.356 110.674 309.302 110.644 309.247 110.609C309.193 110.579 309.139 110.545 309.084 110.51C309.03 110.48 308.976 110.446 308.921 110.416C308.867 110.381 308.813 110.346 308.759 110.317C308.704 110.282 308.655 110.247 308.601 110.218C308.546 110.183 308.492 110.153 308.438 110.118C308.383 110.084 308.329 110.054 308.275 110.019C308.22 109.989 308.166 109.955 308.112 109.92C308.058 109.89 308.003 109.856 307.949 109.826C307.895 109.791 307.84 109.757 307.786 109.727C307.732 109.692 307.677 109.657 307.623 109.628C307.569 109.593 307.52 109.563 307.46 109.528C307.411 109.494 307.357 109.464 307.302 109.429C305.372 108.245 302.736 107.308 299.236 107.308H265.328C264.198 107.308 263.136 107.556 262.183 108.017C261.29 107.561 260.253 107.308 259.128 107.308H244.62C242.344 107.308 240.33 108.309 238.967 110.054C238.953 110.044 238.938 110.034 238.923 110.029C238.869 109.994 238.814 109.96 238.76 109.93C238.706 109.895 238.652 109.866 238.597 109.831C238.543 109.796 238.489 109.766 238.434 109.732C238.38 109.697 238.326 109.667 238.271 109.633C238.217 109.598 238.163 109.568 238.109 109.538C238.059 109.504 238.005 109.469 237.951 109.439C237.896 109.405 237.842 109.37 237.788 109.34C237.733 109.305 237.679 109.276 237.625 109.241C235.67 108.002 233.236 107.308 230.487 107.308H194.471C191.598 107.308 189.129 108.909 187.876 111.591L187.851 111.64L183.304 121.857L181.197 117.926L181.147 117.842C180.491 116.711 179.587 115.819 178.511 115.214C178.457 115.185 178.403 115.15 178.348 115.115C178.294 115.085 178.245 115.051 178.185 115.021C178.131 114.986 178.082 114.952 178.027 114.922C177.973 114.887 177.919 114.852 177.864 114.823C177.81 114.788 177.756 114.753 177.702 114.724C177.647 114.689 177.593 114.654 177.539 114.624C177.484 114.59 177.43 114.56 177.376 114.525C177.321 114.496 177.272 114.461 177.213 114.426C177.159 114.396 177.104 114.362 177.05 114.327C176.996 114.297 176.946 114.263 176.887 114.233C176.833 114.198 176.783 114.163 176.729 114.134C176.675 114.099 176.621 114.064 176.566 114.034C176.512 114 176.458 113.97 176.403 113.935C176.349 113.901 176.295 113.871 176.24 113.836C176.186 113.806 176.132 113.772 176.078 113.737C176.023 113.707 175.974 113.673 175.915 113.643C175.86 113.608 175.811 113.573 175.757 113.544C175.702 113.509 175.648 113.474 175.594 113.445C175.539 113.41 175.485 113.375 175.431 113.345C175.377 113.311 175.322 113.281 175.268 113.246C175.214 113.217 175.159 113.182 175.105 113.147C175.051 113.117 174.996 113.083 174.942 113.053C174.888 113.018 174.834 112.984 174.779 112.954C174.725 112.919 174.676 112.884 174.616 112.855C174.562 112.82 174.513 112.785 174.458 112.756C174.404 112.721 174.35 112.686 174.295 112.656C174.241 112.627 174.187 112.592 174.133 112.557C174.078 112.528 174.024 112.493 173.97 112.463C173.915 112.428 173.861 112.394 173.807 112.364C173.752 112.329 173.703 112.295 173.644 112.265C173.59 112.23 173.54 112.195 173.486 112.166C173.432 112.131 173.377 112.096 173.323 112.067C173.269 112.037 173.214 112.002 173.16 111.967C173.106 111.938 173.051 111.903 172.997 111.873C172.943 111.838 172.889 111.804 172.834 111.774C172.78 111.739 172.726 111.705 172.671 111.675C172.617 111.64 172.563 111.606 172.508 111.576C172.454 111.541 172.405 111.506 172.346 111.477C172.291 111.447 172.242 111.412 172.188 111.377C172.133 111.348 172.079 111.313 172.025 111.283C171.97 111.249 171.916 111.214 171.862 111.184C171.808 111.149 171.753 111.115 171.699 111.085C171.645 111.05 171.59 111.016 171.536 110.986C171.482 110.951 171.432 110.916 171.373 110.887C171.319 110.857 171.269 110.822 171.215 110.788C171.161 110.758 171.107 110.723 171.052 110.693C170.998 110.659 170.944 110.624 170.889 110.594C170.835 110.56 170.781 110.525 170.726 110.495C170.672 110.46 170.618 110.426 170.564 110.396C170.509 110.361 170.455 110.327 170.401 110.297C170.346 110.267 170.292 110.232 170.238 110.198C170.183 110.168 170.134 110.133 170.075 110.104C170.021 110.069 169.971 110.034 169.917 110.004C169.863 109.97 169.808 109.935 169.754 109.905C169.7 109.871 169.645 109.836 169.591 109.806C169.537 109.771 169.482 109.737 169.428 109.707C169.374 109.672 169.32 109.642 169.265 109.608C169.211 109.578 169.162 109.543 169.102 109.509C169.048 109.479 168.994 109.444 168.939 109.41C168.885 109.38 168.836 109.345 168.777 109.315C168.727 109.281 168.673 109.246 168.619 109.216C168.564 109.181 168.51 109.147 168.456 109.117C168.401 109.082 168.347 109.053 168.293 109.018C168.238 108.988 168.184 108.953 168.13 108.919C168.076 108.889 168.021 108.854 167.967 108.82C167.913 108.79 167.863 108.755 167.804 108.725C167.75 108.691 167.7 108.656 167.646 108.626C167.592 108.592 167.538 108.557 167.483 108.527C167.429 108.492 167.375 108.458 167.32 108.428C167.266 108.398 167.212 108.364 167.157 108.329C166.052 107.665 164.753 107.308 163.346 107.308H160.607C158.84 107.308 157.136 107.873 155.394 109.043L155.349 109.072L144.346 116.736C143.862 116.082 143.25 115.532 142.539 115.12C142.485 115.09 142.431 115.056 142.377 115.021C142.322 114.991 142.268 114.957 142.214 114.927C142.159 114.892 142.11 114.857 142.051 114.828C142.001 114.793 141.947 114.758 141.893 114.728C141.839 114.694 141.784 114.659 141.73 114.629C141.676 114.595 141.621 114.565 141.567 114.53C141.513 114.5 141.458 114.466 141.404 114.431C141.35 114.401 141.296 114.367 141.241 114.337C141.187 114.302 141.133 114.267 141.078 114.238C141.024 114.203 140.97 114.168 140.915 114.139C140.861 114.104 140.812 114.069 140.753 114.039C140.703 114.005 140.649 113.975 140.595 113.94C140.54 113.911 140.486 113.876 140.432 113.841C140.377 113.811 140.323 113.777 140.269 113.742C140.214 113.712 140.16 113.678 140.106 113.648C140.052 113.613 139.997 113.578 139.943 113.549C139.889 113.514 139.839 113.479 139.78 113.45C139.731 113.415 139.676 113.385 139.622 113.35C139.568 113.316 139.513 113.286 139.459 113.251C139.405 113.217 139.351 113.187 139.296 113.152C139.242 113.122 139.188 113.088 139.133 113.058C139.079 113.023 139.025 112.989 138.97 112.959C138.916 112.924 138.862 112.889 138.808 112.86C138.753 112.825 138.699 112.79 138.645 112.761C138.59 112.726 138.541 112.696 138.482 112.661C138.432 112.627 138.378 112.597 138.324 112.562C138.269 112.532 138.215 112.498 138.161 112.468C138.107 112.433 138.052 112.399 137.998 112.369C137.944 112.334 137.889 112.3 137.835 112.27C137.781 112.235 137.726 112.2 137.672 112.171C137.618 112.136 137.569 112.106 137.509 112.071C137.455 112.037 137.401 112.007 137.346 111.972C137.297 111.943 137.243 111.908 137.183 111.873C137.134 111.843 137.08 111.809 137.026 111.779C136.971 111.744 136.917 111.71 136.863 111.68C136.808 111.645 136.754 111.61 136.7 111.581C136.645 111.546 136.591 111.516 136.537 111.482C136.482 111.447 136.428 111.417 136.374 111.382C136.32 111.353 136.27 111.318 136.211 111.283C136.162 111.254 136.107 111.219 136.053 111.189C135.999 111.154 135.944 111.12 135.89 111.09C135.836 111.055 135.782 111.021 135.727 110.991C135.673 110.956 135.619 110.926 135.564 110.892C135.51 110.857 135.456 110.827 135.401 110.793C135.347 110.763 135.293 110.728 135.239 110.698C135.184 110.664 135.13 110.629 135.076 110.599C135.026 110.565 134.972 110.53 134.918 110.5C134.863 110.465 134.809 110.431 134.755 110.401C134.7 110.366 134.646 110.336 134.592 110.302C134.538 110.267 134.483 110.237 134.429 110.203C134.375 110.173 134.32 110.138 134.266 110.108C134.212 110.074 134.157 110.039 134.103 110.009C134.049 109.975 133.999 109.94 133.945 109.91C133.891 109.875 133.837 109.841 133.782 109.811C133.728 109.776 133.674 109.747 133.619 109.712C133.565 109.677 133.511 109.647 133.456 109.613C133.402 109.583 133.348 109.548 133.294 109.514C133.239 109.484 133.185 109.449 133.131 109.419C133.076 109.385 133.022 109.35 132.968 109.32C132.913 109.286 132.859 109.251 132.805 109.221C132.756 109.186 132.701 109.157 132.647 109.122C132.593 109.087 132.538 109.058 132.484 109.023C132.43 108.993 132.375 108.958 132.321 108.924C132.267 108.894 132.212 108.859 132.158 108.825C132.104 108.795 132.05 108.76 131.995 108.73C131.941 108.696 131.887 108.661 131.832 108.631C131.778 108.597 131.729 108.562 131.669 108.532C131.62 108.497 131.566 108.468 131.512 108.433C131.457 108.398 131.403 108.369 131.349 108.334C131.294 108.299 131.24 108.269 131.186 108.235C130.238 107.645 129.107 107.308 127.878 107.308H118.978C116.5 107.308 114.372 108.101 112.615 108.879L104.959 112.275C104.949 112.265 104.939 112.26 104.924 112.25C104.875 112.22 104.815 112.185 104.761 112.156C104.712 112.121 104.657 112.086 104.598 112.057C104.549 112.022 104.495 111.987 104.435 111.957C104.386 111.923 104.332 111.893 104.277 111.858C104.223 111.824 104.169 111.794 104.114 111.759C104.06 111.724 104.006 111.695 103.952 111.66C103.897 111.625 103.843 111.596 103.789 111.566C103.734 111.531 103.68 111.496 103.626 111.467C103.576 111.432 103.522 111.397 103.468 111.368C103.413 111.333 103.359 111.303 103.305 111.268C103.251 111.234 103.196 111.204 103.142 111.169C103.088 111.135 103.033 111.105 102.979 111.07C102.925 111.035 102.87 111.006 102.816 110.976C102.762 110.941 102.708 110.907 102.653 110.877C102.604 110.842 102.545 110.807 102.49 110.778C102.436 110.743 102.382 110.713 102.327 110.679C102.278 110.644 102.224 110.614 102.169 110.579C102.115 110.545 102.061 110.515 102.007 110.48C101.952 110.446 101.898 110.416 101.844 110.386C101.789 110.351 101.735 110.317 101.681 110.287C101.626 110.252 101.572 110.218 101.518 110.188C101.464 110.153 101.409 110.123 101.355 110.089C101.306 110.054 101.251 110.024 101.197 109.989C101.143 109.955 101.088 109.925 101.034 109.89C100.98 109.856 100.925 109.826 100.871 109.796C100.817 109.761 100.763 109.727 100.708 109.697C100.654 109.662 100.6 109.628 100.545 109.598C100.491 109.563 100.437 109.533 100.382 109.499C100.328 109.464 100.274 109.434 100.22 109.4C100.165 109.365 100.111 109.335 100.057 109.3C100.007 109.266 99.953 109.236 99.8987 109.206C99.8444 109.172 99.7901 109.137 99.7358 109.107C99.6815 109.072 99.6272 109.038 99.5729 109.008C99.5186 108.973 99.4643 108.944 99.41 108.909C99.3557 108.874 99.3014 108.844 99.2471 108.81C99.1928 108.775 99.1385 108.745 99.0842 108.711C99.0348 108.676 98.9805 108.646 98.9262 108.611C98.8719 108.582 98.8176 108.547 98.7633 108.517C98.709 108.483 98.6547 108.448 98.6004 108.418C98.5461 108.383 98.4918 108.349 98.4375 108.319C97.4305 107.675 96.2063 107.308 94.8537 107.308H80.3455C77.4972 107.308 75.0438 108.909 73.79 111.591L73.7653 111.64L61.9278 138.25C61.4687 139.222 61.2416 140.193 61.2416 141.224C61.2416 143.46 62.4362 145.373 64.2578 146.419C64.3121 146.454 64.3664 146.489 64.4207 146.518C64.475 146.553 64.5243 146.588 64.5836 146.618C64.6329 146.652 64.6922 146.682 64.7465 146.717C64.8008 146.751 64.8501 146.781 64.9094 146.816C64.9587 146.846 65.013 146.88 65.0673 146.915C65.1216 146.945 65.1759 146.979 65.2302 147.014C65.2845 147.044 65.3388 147.079 65.3931 147.108C65.4474 147.143 65.5017 147.178 65.556 147.208C65.6103 147.242 65.6646 147.277 65.7189 147.307C65.7732 147.341 65.8226 147.371 65.8818 147.406C65.9312 147.44 65.9855 147.47 66.0398 147.505C66.0941 147.535 66.1484 147.569 66.2027 147.599C66.257 147.634 66.3113 147.669 66.3656 147.698C66.4199 147.733 66.4742 147.768 66.5285 147.797C66.5828 147.832 66.6371 147.867 66.6914 147.897C66.7457 147.931 66.8 147.966 66.8543 147.996C66.9086 148.03 66.9629 148.06 67.0172 148.095C67.0715 148.125 67.1209 148.159 67.1801 148.194C67.2295 148.224 67.2838 148.258 67.3381 148.288C67.3924 148.323 67.4467 148.358 67.501 148.387C67.5553 148.422 67.6096 148.457 67.6639 148.486C67.7182 148.521 67.7725 148.556 67.8268 148.586C67.8811 148.62 67.9354 148.65 67.9897 148.685C68.044 148.714 68.0934 148.749 68.1526 148.779C68.202 148.814 68.2563 148.848 68.3106 148.878C68.3649 148.913 68.4192 148.947 68.4735 148.977C68.5278 149.012 68.5821 149.047 68.6364 149.076C68.6907 149.111 68.745 149.146 68.7993 149.175C68.8536 149.21 68.9079 149.24 68.9622 149.275C69.0165 149.304 69.0708 149.339 69.1251 149.369C69.1794 149.404 69.2337 149.438 69.288 149.468C69.3423 149.503 69.3916 149.537 69.4509 149.567C69.5002 149.602 69.5545 149.636 69.6088 149.666C69.6631 149.701 69.7174 149.736 69.7717 149.765C69.826 149.8 69.8803 149.83 69.9346 149.865C69.9889 149.894 70.0432 149.929 70.0975 149.959C70.1518 149.993 70.2061 150.028 70.2604 150.058C70.3147 150.093 70.3641 150.127 70.4233 150.157C70.4727 150.192 70.527 150.226 70.5813 150.256C70.6356 150.291 70.6899 150.326 70.7442 150.355C70.7985 150.39 70.8528 150.42 70.9071 150.454C70.9614 150.484 71.0157 150.519 71.07 150.554C71.1243 150.583 71.1786 150.618 71.2329 150.648C71.2872 150.682 71.3415 150.717 71.3958 150.747C71.4501 150.782 71.5044 150.816 71.5587 150.846C71.613 150.881 71.6624 150.91 71.7167 150.945C71.771 150.98 71.8253 151.01 71.8796 151.044C71.9339 151.074 71.9882 151.109 72.0425 151.143C72.0968 151.173 72.1511 151.208 72.2054 151.243C72.2597 151.272 72.314 151.307 72.3683 151.337C72.4226 151.371 72.4769 151.406 72.5312 151.436C72.5855 151.471 72.6349 151.505 72.6941 151.535C72.7484 151.57 72.8027 151.6 72.857 151.634C72.9113 151.669 72.9607 151.699 73.015 151.733C73.0693 151.763 73.1236 151.798 73.1779 151.832C73.2322 151.862 73.2865 151.897 73.3408 151.927C73.3951 151.961 73.4494 151.996 73.5037 152.026C73.558 152.061 73.6123 152.095 73.6666 152.125C73.7209 152.16 73.7752 152.194 73.8295 152.224C73.8838 152.259 73.9331 152.289 73.9924 152.323C74.0417 152.358 74.096 152.388 74.1503 152.422C74.2046 152.452 74.2589 152.487 74.3132 152.517C74.3675 152.551 74.4218 152.586 74.4761 152.616C74.5304 152.65 74.5847 152.685 74.639 152.715C74.6933 152.75 74.7476 152.784 74.8019 152.814C74.8562 152.849 74.9106 152.878 74.9649 152.913C75.0192 152.948 75.0685 152.978 75.1278 153.012C75.1771 153.042 75.2314 153.077 75.2857 153.106C75.34 153.141 75.3943 153.176 75.4486 153.206C75.5029 153.24 75.5572 153.275 75.6115 153.305C76.5939 153.91 77.7638 154.261 79.0374 154.261H93.3925C96.3099 154.261 98.7781 152.611 99.9974 149.86L101.009 147.589C101.029 147.604 101.054 147.614 101.079 147.629C101.128 147.659 101.182 147.693 101.236 147.728C101.291 147.758 101.345 147.792 101.399 147.822C101.454 147.857 101.508 147.892 101.562 147.921C101.612 147.956 101.666 147.986 101.72 148.02C101.775 148.05 101.829 148.085 101.883 148.115C101.937 148.149 101.992 148.184 102.046 148.214C102.095 148.249 102.15 148.283 102.204 148.313C102.258 148.348 102.313 148.377 102.367 148.412C102.421 148.442 102.476 148.477 102.53 148.506C102.579 148.541 102.633 148.576 102.688 148.605C102.742 148.64 102.796 148.675 102.851 148.705C102.905 148.734 102.959 148.769 103.014 148.804C103.063 148.833 103.117 148.868 103.172 148.898C103.226 148.933 103.28 148.967 103.334 148.997C103.389 149.032 103.443 149.061 103.497 149.096C103.552 149.131 103.601 149.161 103.655 149.195C103.71 149.225 103.764 149.26 103.818 149.289C103.873 149.324 103.927 149.359 103.981 149.389C104.035 149.423 104.085 149.453 104.139 149.488C104.193 149.518 104.248 149.552 104.302 149.582C104.356 149.617 104.411 149.651 104.465 149.681C104.519 149.716 104.569 149.751 104.623 149.78C104.677 149.815 104.731 149.845 104.786 149.879C104.84 149.909 104.894 149.944 104.949 149.974C105.003 150.008 105.052 150.043 105.107 150.073C105.161 150.107 105.215 150.142 105.27 150.172C105.324 150.202 105.378 150.236 105.432 150.271C105.487 150.301 105.536 150.335 105.59 150.365C105.645 150.4 105.699 150.435 105.753 150.464C105.808 150.499 105.862 150.529 105.916 150.563C105.97 150.593 106.02 150.628 106.079 150.663C106.133 150.692 106.183 150.727 106.237 150.757C106.291 150.791 106.346 150.826 106.4 150.856C106.454 150.891 106.509 150.925 106.563 150.955C106.617 150.985 106.667 151.02 106.721 151.049C106.775 151.084 106.829 151.119 106.884 151.148C106.938 151.183 106.992 151.218 107.047 151.248C107.101 151.277 107.15 151.312 107.205 151.347C107.259 151.376 107.313 151.411 107.368 151.441C107.422 151.476 107.476 151.51 107.53 151.54C107.585 151.575 107.634 151.604 107.688 151.639C107.743 151.674 107.797 151.704 107.851 151.738C107.906 151.768 107.96 151.803 108.014 151.832C108.068 151.867 108.118 151.902 108.172 151.932C108.226 151.966 108.281 151.996 108.335 152.031C108.389 152.061 108.444 152.095 108.498 152.125C108.552 152.16 108.607 152.194 108.661 152.224C108.71 152.259 108.765 152.294 108.819 152.323C108.873 152.358 108.927 152.388 108.982 152.422C109.036 152.452 109.09 152.487 109.145 152.517C109.194 152.551 109.248 152.586 109.303 152.616C109.357 152.65 109.411 152.685 109.465 152.715C109.52 152.745 109.574 152.779 109.628 152.814C109.678 152.844 109.732 152.878 109.786 152.908C109.841 152.943 109.895 152.978 109.949 153.007C110.004 153.042 110.058 153.072 110.112 153.106C111.371 153.87 112.832 154.261 114.491 154.261H128.796C129.231 154.261 129.66 154.227 130.07 154.162C130.43 154.227 130.806 154.261 131.186 154.261H159.165C161.342 154.261 163.322 153.285 164.674 151.634C164.694 151.644 164.714 151.654 164.734 151.664C164.783 151.699 164.842 151.728 164.897 151.763C164.946 151.793 165 151.828 165.054 151.857C165.109 151.892 165.163 151.927 165.217 151.956C165.272 151.991 165.326 152.021 165.38 152.056C165.43 152.09 165.484 152.12 165.538 152.155C165.593 152.184 165.647 152.219 165.701 152.254C165.755 152.284 165.81 152.318 165.864 152.348C165.913 152.383 165.968 152.412 166.022 152.447C166.076 152.482 166.131 152.512 166.185 152.546C166.239 152.576 166.294 152.611 166.348 152.641C166.397 152.675 166.451 152.71 166.506 152.74C166.56 152.774 166.614 152.804 166.669 152.839C166.723 152.869 166.777 152.903 166.832 152.938C166.881 152.968 166.935 153.002 166.99 153.032C167.044 153.067 167.098 153.102 167.152 153.131C168.179 153.776 169.542 154.261 171.329 154.261H188.695C189.361 154.261 190.003 154.172 190.61 154.009C191.193 154.172 191.815 154.261 192.466 154.261H206.856C209.798 154.261 212.286 152.611 213.51 149.85L216.048 144.109H225.323C225.822 145.061 226.577 145.854 227.51 146.414C227.564 146.449 227.619 146.479 227.673 146.509C227.722 146.543 227.777 146.578 227.831 146.608C227.885 146.642 227.94 146.672 227.994 146.707C228.048 146.742 228.102 146.771 228.157 146.806C228.206 146.836 228.26 146.87 228.315 146.9C228.369 146.935 228.423 146.97 228.478 146.999C228.532 147.034 228.586 147.064 228.64 147.098C228.69 147.133 228.744 147.163 228.798 147.198C228.853 147.227 228.907 147.262 228.961 147.292C229.016 147.326 229.07 147.356 229.124 147.391C229.174 147.426 229.228 147.455 229.282 147.49C229.337 147.52 229.391 147.555 229.445 147.584C229.499 147.619 229.554 147.654 229.608 147.683C229.662 147.718 229.717 147.753 229.771 147.783C229.82 147.817 229.875 147.847 229.929 147.882C229.983 147.916 230.038 147.946 230.092 147.976C230.146 148.011 230.2 148.045 230.255 148.075C230.304 148.11 230.358 148.139 230.413 148.174C230.467 148.209 230.521 148.239 230.576 148.268C230.63 148.303 230.684 148.338 230.738 148.367C230.788 148.402 230.842 148.432 230.896 148.467C230.951 148.501 231.005 148.531 231.059 148.566C231.114 148.6 231.168 148.63 231.222 148.665C231.272 148.695 231.326 148.729 231.38 148.759C231.435 148.794 231.489 148.824 231.543 148.858C231.597 148.893 231.652 148.923 231.706 148.957C231.755 148.992 231.81 149.022 231.864 149.052C231.918 149.086 231.973 149.121 232.027 149.151C232.081 149.185 232.135 149.215 232.19 149.25C232.244 149.285 232.298 149.314 232.348 149.349C232.402 149.379 232.456 149.413 232.511 149.443C232.565 149.478 232.619 149.513 232.674 149.542C232.723 149.577 232.782 149.607 232.832 149.641C232.886 149.676 232.94 149.706 232.994 149.741C233.049 149.77 233.103 149.805 233.157 149.835C233.207 149.869 233.266 149.899 233.315 149.934C233.37 149.969 233.424 149.998 233.478 150.033C233.532 150.068 233.587 150.098 233.641 150.132C233.69 150.162 233.75 150.197 233.799 150.226C233.853 150.261 233.908 150.296 233.962 150.326C234.016 150.36 234.071 150.39 234.125 150.425C234.179 150.459 234.233 150.489 234.283 150.519C234.337 150.554 234.391 150.588 234.446 150.618C234.5 150.653 234.554 150.682 234.609 150.717C234.663 150.752 234.717 150.782 234.772 150.811C234.821 150.846 234.875 150.881 234.929 150.91C234.984 150.945 235.038 150.98 235.092 151.01C235.147 151.044 235.201 151.074 235.255 151.109C235.305 151.143 235.359 151.173 235.413 151.208C235.468 151.238 235.522 151.272 235.576 151.302C235.63 151.337 235.685 151.367 235.739 151.401C235.788 151.436 235.843 151.466 235.897 151.5C235.951 151.535 236.006 151.565 236.06 151.595C236.114 151.629 236.169 151.664 236.223 151.694C236.272 151.728 236.326 151.758 236.381 151.793C236.435 151.828 236.489 151.857 236.544 151.892C236.598 151.922 236.652 151.956 236.707 151.986C236.756 152.021 236.81 152.056 236.865 152.085C236.919 152.12 236.973 152.15 237.027 152.184C237.082 152.219 237.136 152.249 237.19 152.284C237.245 152.313 237.299 152.348 237.353 152.378C237.403 152.412 237.457 152.442 237.511 152.477C237.566 152.512 237.62 152.541 237.674 152.576C237.728 152.606 237.783 152.641 237.837 152.675C237.886 152.705 237.941 152.74 237.995 152.769C238.049 152.804 238.104 152.839 238.158 152.869C238.212 152.903 238.267 152.933 238.321 152.968C238.37 153.002 238.424 153.032 238.479 153.062C238.533 153.097 238.587 153.131 238.642 153.161C238.696 153.196 238.75 153.225 238.805 153.26C239.797 153.895 241.006 154.261 242.344 154.261H257.864C258.97 154.261 260.026 154.009 260.974 153.548C261.868 154.004 262.899 154.261 264.02 154.261H297.928C303.763 154.261 309.835 152.056 314.875 148.154C314.919 148.184 314.959 148.209 315.003 148.234C315.057 148.268 315.112 148.298 315.166 148.333C315.22 148.363 315.275 148.397 315.329 148.432C315.383 148.462 315.438 148.496 315.492 148.531C315.546 148.561 315.6 148.595 315.655 148.625C315.709 148.66 315.758 148.695 315.813 148.724C315.867 148.759 315.921 148.794 315.976 148.824C316.03 148.858 316.084 148.888 316.139 148.923C316.193 148.957 316.247 148.987 316.301 149.022C316.356 149.052 316.41 149.086 316.464 149.121C316.519 149.151 316.573 149.185 316.627 149.215C316.682 149.25 316.731 149.285 316.785 149.314C316.839 149.349 316.894 149.384 316.948 149.413C317.002 149.448 317.057 149.478 317.111 149.513C317.165 149.542 317.22 149.577 317.274 149.612C317.328 149.641 317.382 149.676 317.437 149.711C317.491 149.741 317.545 149.775 317.6 149.805C317.654 149.84 317.708 149.874 317.763 149.904C317.817 149.939 317.866 149.974 317.925 150.003C317.98 150.038 318.029 150.068 318.083 150.102C318.138 150.137 318.192 150.167 318.246 150.202C318.301 150.236 318.355 150.266 318.409 150.301C318.464 150.33 318.518 150.365 318.572 150.4C318.626 150.43 318.681 150.464 318.735 150.494C318.789 150.529 318.844 150.563 318.898 150.593C318.952 150.628 319.002 150.663 319.056 150.692C319.11 150.727 319.165 150.757 319.219 150.792C319.273 150.826 319.327 150.856 319.382 150.891C319.436 150.92 319.49 150.955 319.545 150.99C319.599 151.02 319.653 151.054 319.708 151.084C319.762 151.119 319.816 151.153 319.87 151.183C319.925 151.218 319.979 151.253 320.033 151.282C320.088 151.317 320.137 151.352 320.196 151.381C320.251 151.416 320.3 151.446 320.354 151.481C320.409 151.51 320.463 151.545 320.517 151.58C320.571 151.609 320.626 151.644 320.68 151.679C320.734 151.709 320.789 151.743 320.843 151.773C320.897 151.808 320.952 151.842 321.006 151.872C321.06 151.907 321.114 151.942 321.169 151.971C321.223 152.006 321.272 152.036 321.327 152.07C321.386 152.1 321.435 152.135 321.495 152.17C323.711 153.513 326.391 154.261 329.393 154.261H359.001C361.958 154.261 364.461 152.601 365.69 149.825L366.801 147.272C367.418 146.038 367.517 144.883 367.517 144.268C367.517 142.949 367.107 141.745 366.401 140.758C367.709 140.416 368.855 139.732 369.733 138.775L372.275 143.514C372.927 144.734 373.845 145.686 374.956 146.325C375.01 146.36 375.065 146.395 375.119 146.424C375.168 146.459 375.223 146.494 375.277 146.523C375.331 146.558 375.385 146.588 375.44 146.623C375.494 146.652 375.548 146.687 375.603 146.722C375.657 146.751 375.711 146.786 375.766 146.816C375.82 146.851 375.874 146.885 375.928 146.915C375.983 146.95 376.037 146.984 376.091 147.014C376.146 147.049 376.2 147.084 376.254 147.113C376.309 147.148 376.358 147.178 376.417 147.212C376.466 147.242 376.521 147.277 376.575 147.312C376.629 147.341 376.684 147.376 376.738 147.406C376.792 147.44 376.847 147.475 376.901 147.505C376.955 147.54 377.009 147.574 377.064 147.604C377.118 147.639 377.172 147.673 377.227 147.703C377.281 147.738 377.335 147.768 377.39 147.802C377.439 147.832 377.493 147.867 377.548 147.902C377.602 147.931 377.656 147.966 377.71 147.996C377.765 148.03 377.819 148.065 377.873 148.095C377.928 148.13 377.982 148.164 378.036 148.194C378.091 148.229 378.145 148.263 378.199 148.293C378.253 148.328 378.308 148.358 378.362 148.392C378.416 148.422 378.471 148.457 378.525 148.491C378.579 148.521 378.629 148.556 378.688 148.586C378.737 148.62 378.792 148.655 378.846 148.685C378.9 148.719 378.954 148.754 379.009 148.784C379.063 148.819 379.117 148.853 379.172 148.883C379.226 148.918 379.28 148.947 379.335 148.982C379.389 149.012 379.443 149.047 379.497 149.081C379.552 149.111 379.606 149.146 379.66 149.18C379.71 149.21 379.764 149.245 379.818 149.275C379.873 149.309 379.927 149.344 379.981 149.374C380.036 149.408 380.09 149.443 380.144 149.473C380.198 149.508 380.253 149.537 380.307 149.572C380.361 149.607 380.416 149.636 380.47 149.671C380.524 149.701 380.579 149.736 380.633 149.77C380.687 149.8 380.741 149.835 380.796 149.869C380.85 149.899 380.899 149.934 380.959 149.964C381.008 149.998 381.062 150.033 381.117 150.063C381.171 150.098 381.225 150.132 381.279 150.162C381.334 150.197 381.388 150.226 381.442 150.261C381.497 150.296 381.551 150.326 381.605 150.36C381.66 150.39 381.714 150.425 381.768 150.459C381.822 150.489 381.877 150.524 381.931 150.554C381.98 150.588 382.035 150.623 382.089 150.653C382.143 150.687 382.198 150.722 382.257 150.752C382.306 150.787 382.361 150.821 382.415 150.851C382.469 150.886 382.523 150.915 382.578 150.95C382.632 150.98 382.686 151.015 382.741 151.049C382.795 151.079 382.849 151.114 382.904 151.143C382.958 151.178 383.012 151.213 383.066 151.243C383.121 151.277 383.17 151.312 383.229 151.342C383.279 151.376 383.333 151.411 383.387 151.441C383.442 151.476 383.496 151.505 383.55 151.54C383.605 151.57 383.659 151.604 383.713 151.639C383.767 151.669 383.822 151.704 383.876 151.733C383.93 151.768 383.985 151.803 384.039 151.832C384.093 151.867 384.148 151.902 384.202 151.932C384.256 151.966 384.31 152.001 384.365 152.031C384.419 152.065 384.468 152.095 384.523 152.13C384.577 152.16 384.631 152.194 384.686 152.229C384.74 152.259 384.794 152.294 384.849 152.323C384.903 152.358 384.957 152.393 385.011 152.422C385.066 152.457 385.12 152.492 385.174 152.522C385.229 152.556 385.283 152.591 385.337 152.621C385.392 152.655 385.441 152.685 385.5 152.72C385.549 152.75 385.604 152.784 385.658 152.819C385.712 152.849 385.767 152.883 385.821 152.913C385.875 152.948 385.93 152.983 385.984 153.012C386.038 153.047 386.092 153.082 386.147 153.111C386.201 153.146 386.255 153.181 386.31 153.211C387.411 153.895 388.709 154.261 390.126 154.261H392.91C394.726 154.261 396.523 153.632 398.241 152.398L436.656 125.679L436.804 125.56C439.075 123.736 439.554 121.693 439.554 120.295C439.554 118.065 438.379 116.151 436.597 115.115Z" fill="#241F23"/>
<path d="M102.209 141.571C101.019 141.571 100.417 141.229 99.8247 140.411L90.9144 127.701C90.7466 127.449 90.6627 127.23 90.6627 126.933C90.6627 126.591 90.7466 126.204 91.0428 125.649L91.5562 124.41C91.9807 123.423 92.3657 123.081 93.1753 122.695L113.928 113.494C115.379 112.855 116.742 112.384 118.104 112.384H127.098C127.523 112.384 127.696 112.597 127.696 112.855C127.696 113.152 127.483 113.579 126.842 113.836L105.536 123.21L118.233 139.643C118.405 139.856 118.45 140.114 118.45 140.327C118.45 141.016 117.892 141.571 116.742 141.571H102.209ZM66.2175 141.571C65.7486 141.571 65.4474 141.398 65.4474 141.056C65.4474 140.843 65.4919 140.669 65.6202 140.411L77.596 113.494C77.9366 112.766 78.45 112.384 79.1707 112.384H93.8319C94.3452 112.384 94.6414 112.552 94.6414 112.939C94.6414 113.108 94.6019 113.281 94.4736 113.494L82.4978 140.411C82.1572 141.185 81.6438 141.571 80.8787 141.571H66.2175ZM159.906 141.571C158.963 141.571 158.405 141.269 158.06 140.709L149.149 123.458L130.258 136.495H149.707C150.265 136.495 150.477 136.708 150.477 137.055C150.477 137.179 150.438 137.442 150.309 137.655L149.11 140.406C148.764 141.185 148.211 141.571 147.481 141.571H119.027C118.647 141.571 118.474 141.398 118.474 141.056C118.474 140.758 118.731 140.456 119.161 140.159L157.852 113.197C158.622 112.681 159.304 112.384 160.029 112.384H162.799C163.608 112.384 164.033 112.681 164.334 113.197L178.738 140.074C178.783 140.243 178.822 140.411 178.822 140.585C178.822 141.1 178.398 141.571 177.46 141.571H159.906ZM205.123 131.419C204.605 131.419 204.353 131.201 204.353 130.859C204.353 130.686 204.353 130.472 204.477 130.254L205.721 127.503C206.066 126.73 206.58 126.343 207.35 126.343H212.691C216.852 126.343 220.031 124.098 220.031 120.261C220.031 118.407 218.659 117.46 216.64 117.46H207.552L197.398 140.416C197.057 141.185 196.504 141.571 195.739 141.571H181.157C180.644 141.571 180.387 141.398 180.387 141.056C180.387 140.843 180.431 140.669 180.515 140.411L192.491 113.494C192.832 112.766 193.345 112.384 194.11 112.384H230.368C234.584 112.384 237.2 114.669 237.2 118.556C237.2 126.323 229.253 131.419 220.871 131.419H205.123ZM231.617 141.571C231.109 141.571 230.852 141.398 230.852 141.056C230.852 140.843 230.896 140.669 230.98 140.411L242.956 113.494C243.297 112.766 243.85 112.384 244.575 112.384H259.236C259.789 112.384 260.046 112.552 260.046 112.939C260.046 113.108 260.002 113.281 259.873 113.494L247.942 140.411C247.601 141.185 247.048 141.571 246.323 141.571H231.617ZM289.452 124.103C290.341 122.1 290.81 120.608 290.81 119.631C290.81 118.01 289.665 117.46 287.502 117.46H278.893L270.496 136.495H279.061C282.452 136.495 284.832 134.493 287.418 128.742L289.452 124.103ZM252.419 141.571C251.906 141.571 251.654 141.398 251.654 141.056C251.654 140.843 251.694 140.669 251.782 140.416L263.758 113.494C264.099 112.766 264.607 112.384 265.377 112.384H299.641C305.609 112.384 308.759 116.236 308.759 121.495C308.759 131.94 297.425 141.571 286.683 141.571H252.419ZM333.135 128.881C332.616 128.881 332.355 128.708 332.355 128.361C332.355 128.187 332.399 127.969 332.527 127.751L333.737 124.93C334.082 124.192 334.645 123.805 335.425 123.805H356.035C356.637 123.805 356.938 123.934 356.938 124.236C356.938 124.326 356.894 124.454 356.854 124.583L355.255 128.098C355.038 128.618 354.519 128.881 353.784 128.881H333.135ZM318.335 141.571C312.54 141.571 309.257 137.72 309.257 132.326C309.257 122.353 320.038 112.384 331.288 112.384H360.946C361.465 112.384 361.726 112.557 361.726 112.949C361.726 113.118 361.682 113.291 361.593 113.509L360.344 116.285C359.994 117.068 359.436 117.46 358.656 117.46H338.93C335.282 117.46 333.288 118.863 330.997 124.103L328.963 128.742C327.902 131.127 327.349 132.832 327.349 134.066C327.349 135.811 328.455 136.495 330.489 136.495H350.407C350.921 136.495 351.182 136.708 351.182 137.055C351.182 137.179 351.138 137.442 351.009 137.655L349.81 140.406C349.464 141.185 348.911 141.571 348.136 141.571H318.335ZM384.424 140.714C383.659 141.269 382.933 141.571 382.252 141.571H379.438C378.673 141.571 378.249 141.269 377.947 140.714L363.543 113.836C363.459 113.707 363.459 113.494 363.459 113.365C363.459 112.81 363.884 112.384 364.822 112.384H382.341C383.274 112.384 383.871 112.637 384.172 113.237L393.033 130.398L417.883 113.237C418.693 112.681 419.502 112.384 420.48 112.384H423.254C423.634 112.384 423.807 112.552 423.807 112.85C423.807 113.152 423.55 113.455 423.126 113.792L384.424 140.714Z" fill="#F7F2EA"/>
<path d="M240.987 97.0367C220.421 97.0466 199.856 96.9971 179.291 97.1607C175.618 97.1904 172.805 96.4567 171.092 92.9719C169.64 90.0274 167.271 89.2739 163.998 89.2838C137.993 89.3383 111.983 89.3284 85.9781 89.0062C77.5023 88.8972 73.5284 96.3229 73.4692 102.509C73.4593 103.342 73.6667 103.585 74.5947 103.585C74.5947 103.585 217.07 103.575 245.266 103.57C247.833 103.57 247.912 103.441 247.029 100.958C246.032 98.1521 244.388 97.0367 240.987 97.0367ZM492.981 147.193C492.171 147.118 491.327 147.128 490.483 147.128C468.901 147.123 447.349 147.054 425.727 147.148C415.227 147.193 415.825 145.413 404.022 155.387C400.996 157.945 397.792 159.253 394.519 159.164C390.269 159.05 385.935 159.134 381.635 159.134C381.63 159.139 381.63 159.144 381.63 159.144H369.995C364.002 159.149 356.632 163.1 351.997 168.776C350.738 170.323 350.896 171.126 352.456 171.21C353.196 171.25 353.956 171.245 354.717 171.245C377.311 171.25 399.919 171.22 422.484 171.289C425.327 171.299 428.067 170.466 431.019 168.796C435.659 166.169 440.329 163.645 444.979 161.048C447.388 159.705 449.639 159.11 451.92 159.13C459.226 159.199 466.487 159.392 473.941 159.08C480.581 158.807 486.791 154.019 492.946 149.785C493.03 149.731 493.094 149.637 493.163 149.557C494.314 148.254 494.501 147.337 492.981 147.193ZM358.676 160.081C358.715 158.906 357.501 159.199 356.627 159.194C350.15 159.164 343.644 159.189 337.163 159.164C334.645 159.159 332.113 160.22 329.689 162.01C327.25 163.809 324.911 165.792 322.556 167.735C321.672 168.469 320.68 169.326 320.66 170.343C320.641 171.458 321.845 171.24 322.714 171.25C325.982 171.304 329.284 171.274 332.572 171.27C335.524 171.265 338.51 171.185 341.418 171.289C344.474 171.393 347.465 170.095 350.422 167.849C352.589 166.198 354.687 164.429 356.79 162.679C357.679 161.94 358.641 161.112 358.676 160.081ZM327.517 159.794C327.478 158.832 326.505 158.926 325.661 158.926C321.193 158.921 316.721 158.931 312.259 158.921C309.859 158.916 307.371 159.843 305.051 161.534C302.267 163.566 299.567 165.792 296.97 168.087C294.902 169.906 295.06 170.942 297.242 170.997C299.577 171.056 301.956 171.012 304.316 171.012C304.316 171.017 304.311 171.022 304.311 171.027C306.419 171.027 308.556 170.962 310.63 171.046C313.201 171.151 315.828 170.174 318.345 168.33C320.957 166.421 323.44 164.28 325.952 162.203C326.772 161.524 327.552 160.701 327.517 159.794ZM300.668 158.931C298.402 158.931 296.141 158.921 293.875 158.916C287.784 158.911 287.784 158.911 285.242 165.123C284.995 165.732 284.743 166.337 284.496 166.947C282.941 170.759 283.524 171.587 287.369 170.932C287.981 170.828 288.638 170.605 289.265 170.347C293.841 168.474 297.499 164.89 301.216 161.563C302.884 160.071 302.549 158.936 300.668 158.931Z" fill="#241F23"/>
</svg>
