<svg width="25" height="24" viewBox="0 0 25 24" fill="none" xmlns="http://www.w3.org/2000/svg">
<g id="Download" clip-path="url(#clip0_1016_1021)">
<path id="Vector" d="M1.25 14.7313C1.44891 14.7313 1.63968 14.807 1.78033 14.9418C1.92098 15.0766 2 15.2594 2 15.45V19.0438C2 19.425 2.15804 19.7906 2.43934 20.0602C2.72064 20.3298 3.10218 20.4813 3.5 20.4813H21.5C21.8978 20.4813 22.2794 20.3298 22.5607 20.0602C22.842 19.7906 23 19.425 23 19.0438V15.45C23 15.2594 23.079 15.0766 23.2197 14.9418C23.3603 14.807 23.5511 14.7313 23.75 14.7313C23.9489 14.7313 24.1397 14.807 24.2803 14.9418C24.421 15.0766 24.5 15.2594 24.5 15.45V19.0438C24.5 19.8063 24.1839 20.5375 23.6213 21.0767C23.0587 21.6159 22.2956 21.9188 21.5 21.9188H3.5C2.70435 21.9188 1.94129 21.6159 1.37868 21.0767C0.816071 20.5375 0.5 19.8063 0.5 19.0438V15.45C0.5 15.2594 0.579018 15.0766 0.71967 14.9418C0.860322 14.807 1.05109 14.7313 1.25 14.7313Z" fill="black"/>
<path id="Vector_2" d="M11.969 17.5401C12.0387 17.6071 12.1214 17.6602 12.2125 17.6964C12.3037 17.7326 12.4013 17.7513 12.5 17.7513C12.5987 17.7513 12.6963 17.7326 12.7875 17.6964C12.8786 17.6602 12.9613 17.6071 13.031 17.5401L17.531 13.2276C17.6718 13.0927 17.7509 12.9096 17.7509 12.7188C17.7509 12.5279 17.6718 12.3448 17.531 12.2099C17.3902 12.0749 17.1992 11.9991 17 11.9991C16.8008 11.9991 16.6098 12.0749 16.469 12.2099L13.25 15.2962V2.65625C13.25 2.46563 13.171 2.28281 13.0303 2.14802C12.8897 2.01323 12.6989 1.9375 12.5 1.9375C12.3011 1.9375 12.1103 2.01323 11.9697 2.14802C11.829 2.28281 11.75 2.46563 11.75 2.65625V15.2962L8.531 12.2099C8.39017 12.0749 8.19916 11.9991 8 11.9991C7.80084 11.9991 7.60983 12.0749 7.469 12.2099C7.32817 12.3448 7.24905 12.5279 7.24905 12.7188C7.24905 12.9096 7.32817 13.0927 7.469 13.2276L11.969 17.5401Z" fill="black"/>
</g>
<defs>
<clipPath id="clip0_1016_1021">
<rect width="24" height="23" fill="white" transform="translate(0.5 0.5)"/>
</clipPath>
</defs>
</svg>
