<svg width="322" height="40" viewBox="0 0 322 40" fill="none" xmlns="http://www.w3.org/2000/svg">
<path d="M318.644 6.63717C318.598 6.60767 318.552 6.58239 318.506 6.55289C318.46 6.52339 318.414 6.49811 318.368 6.46861C318.322 6.44333 318.276 6.41383 318.23 6.38854C318.188 6.35904 318.142 6.32955 318.096 6.30426C318.049 6.27476 318.003 6.24526 317.957 6.21998C317.911 6.19048 317.865 6.16098 317.819 6.1357C317.773 6.1062 317.727 6.08092 317.681 6.05142C317.635 6.02192 317.588 5.99663 317.542 5.96713C317.496 5.94185 317.45 5.91235 317.404 5.88707C317.362 5.85757 317.316 5.82807 317.27 5.80279C317.224 5.77329 317.178 5.74379 317.132 5.7185C317.086 5.68901 317.039 5.65951 316.993 5.63422C316.947 5.60472 316.901 5.57944 316.855 5.54994C316.809 5.52044 316.763 5.49516 316.717 5.46566C316.671 5.44038 316.625 5.41088 316.579 5.38138C316.532 5.35609 316.486 5.32659 316.44 5.30131C316.394 5.27181 316.348 5.24231 316.302 5.21703C316.26 5.18753 316.214 5.15803 316.168 5.13275C316.122 5.10325 316.076 5.07796 316.03 5.04847C315.983 5.01897 315.937 4.99368 315.891 4.96418C315.845 4.9389 315.799 4.9094 315.753 4.8799C315.707 4.85462 315.661 4.82512 315.615 4.79562C315.569 4.77034 315.522 4.74084 315.476 4.71555C315.434 4.68605 315.388 4.65656 315.342 4.63127C315.296 4.60177 315.25 4.57228 315.204 4.54699C315.158 4.51749 315.112 4.49221 315.066 4.46271C315.02 4.43321 314.974 4.40793 314.927 4.37843C314.881 4.34893 314.835 4.32364 314.789 4.29415C314.743 4.26886 314.697 4.23936 314.651 4.21408C314.605 4.18458 314.559 4.15508 314.513 4.1298C314.466 4.1003 314.425 4.0708 314.374 4.04552C314.332 4.01602 314.286 3.98652 314.24 3.96123C314.194 3.93174 314.148 3.90645 314.102 3.87695C314.056 3.84745 314.01 3.82217 313.964 3.79267C313.917 3.76739 313.871 3.73789 313.825 3.7126C313.779 3.68311 313.733 3.65361 313.687 3.62832C313.641 3.59882 313.595 3.56932 313.549 3.54404C313.507 3.51454 313.461 3.48504 313.415 3.45976C313.369 3.43026 313.322 3.40498 313.272 3.37548C313.23 3.34598 313.184 3.32069 313.138 3.2912C313.092 3.26591 313.046 3.23641 313 3.21113C312.954 3.18163 312.908 3.15213 312.861 3.12685C312.815 3.09735 312.769 3.06785 312.723 3.04256C312.677 3.01307 312.631 2.98357 312.585 2.95828C312.539 2.92878 312.497 2.9035 312.447 2.874C312.405 2.8445 312.359 2.81922 312.313 2.78972C312.266 2.76443 312.22 2.73494 312.174 2.70965C312.128 2.68015 312.082 2.65066 312.036 2.62537C311.99 2.59587 311.944 2.56637 311.898 2.54109C311.852 2.51159 311.805 2.48209 311.759 2.45681C311.713 2.42731 311.667 2.40202 311.621 2.37253C311.575 2.34303 311.529 2.31774 311.483 2.28824C311.437 2.26296 311.395 2.23346 311.349 2.20818C311.303 2.17868 311.256 2.14918 311.21 2.1239C311.164 2.0944 311.118 2.0649 311.072 2.03961C311.026 2.01012 310.98 1.98062 310.934 1.95533C310.888 1.92583 310.842 1.90055 310.796 1.87105C310.749 1.84155 310.703 1.81627 310.657 1.78677C310.611 1.76149 310.569 1.73199 310.519 1.7067C310.477 1.6772 310.431 1.64771 310.385 1.62242C310.339 1.59292 310.293 1.56342 310.247 1.53814C310.2 1.50864 310.154 1.47914 310.108 1.45386C310.062 1.42436 310.016 1.39907 309.97 1.36958C309.924 1.34008 309.878 1.31479 309.832 1.28529C309.786 1.26001 309.739 1.23051 309.693 1.20101C309.647 1.17573 309.601 1.14623 309.555 1.12094C309.509 1.09145 309.467 1.06195 309.421 1.03666C309.375 1.00716 309.329 0.977666 309.283 0.952382C309.237 0.922883 309.191 0.897599 309.144 0.8681C309.098 0.838601 309.052 0.813316 309.006 0.783819C308.21 0.286557 307.259 0 306.224 0H303.898C302.18 0 300.554 0.518332 299.058 1.54657L287.504 9.54067L287.337 9.21197C287.026 8.60093 286.339 7.54741 285.061 6.79731C285.015 6.76781 284.969 6.74253 284.923 6.71303C284.877 6.68353 284.831 6.65824 284.784 6.62874C284.738 6.60346 284.692 6.57396 284.646 6.54868C284.6 6.51918 284.558 6.48968 284.508 6.4644C284.466 6.4349 284.42 6.4054 284.374 6.38011C284.328 6.35062 284.282 6.32112 284.236 6.29583C284.189 6.26633 284.143 6.24105 284.097 6.21155C284.051 6.18205 284.005 6.15677 283.959 6.12727C283.913 6.10198 283.867 6.07249 283.821 6.0472C283.775 6.0177 283.728 5.98821 283.682 5.96292C283.636 5.93342 283.59 5.90392 283.544 5.87864C283.498 5.84914 283.456 5.81964 283.406 5.79436C283.364 5.76486 283.318 5.73957 283.272 5.71008C283.226 5.68058 283.179 5.65529 283.133 5.62579C283.087 5.60051 283.041 5.57101 282.995 5.54573C282.949 5.51623 282.903 5.48673 282.857 5.46145C282.811 5.43195 282.765 5.40245 282.719 5.37716C282.672 5.34767 282.631 5.31817 282.58 5.29288C282.538 5.26338 282.492 5.2381 282.446 5.2086C282.4 5.18332 282.354 5.15382 282.308 5.12432C282.262 5.09904 282.216 5.06954 282.17 5.04425C282.123 5.01475 282.077 4.98526 282.031 4.95997C281.985 4.93047 281.939 4.90097 281.893 4.87569C281.847 4.84619 281.801 4.81669 281.755 4.79141C281.709 4.76191 281.662 4.73662 281.616 4.70713C281.57 4.68184 281.528 4.65234 281.478 4.62284C281.436 4.59756 281.39 4.56806 281.344 4.54278C281.298 4.51328 281.252 4.48378 281.206 4.45849C281.16 4.429 281.114 4.3995 281.067 4.37421C281.021 4.34471 280.975 4.31943 280.929 4.28993C280.883 4.26043 280.837 4.23515 280.791 4.20565C280.745 4.18037 280.703 4.15087 280.653 4.12137C280.611 4.09608 280.565 4.06659 280.514 4.03709C280.472 4.0118 280.426 3.9823 280.38 3.95702C280.334 3.92752 280.288 3.89802 280.242 3.87274C280.196 3.84324 280.15 3.81796 280.104 3.78846C280.057 3.75896 280.011 3.73367 279.965 3.70417C279.919 3.67468 279.873 3.64939 279.827 3.61989C279.781 3.59461 279.735 3.56511 279.689 3.53561C279.643 3.51033 279.601 3.48083 279.55 3.45554C279.509 3.42605 279.462 3.39655 279.416 3.37126C279.37 3.34176 279.324 3.31227 279.278 3.28698C279.232 3.25748 279.186 3.2322 279.14 3.2027C279.094 3.1732 279.048 3.14792 279.001 3.11842C278.955 3.08892 278.909 3.06364 278.863 3.03414C278.817 3.00885 278.775 2.97935 278.725 2.94985C278.683 2.92457 278.637 2.89507 278.587 2.86979C278.545 2.84029 278.499 2.81079 278.448 2.78551C278.406 2.75601 278.36 2.72651 278.314 2.70122C278.268 2.67173 278.222 2.64644 278.176 2.61694C278.13 2.58744 278.084 2.56216 278.038 2.53266C277.992 2.50738 277.945 2.47788 277.899 2.44838C277.853 2.42309 277.807 2.3936 277.761 2.36831C277.715 2.33881 277.673 2.30931 277.623 2.28403C277.581 2.25453 277.535 2.22503 277.489 2.19975C277.443 2.17025 277.396 2.14497 277.35 2.11547C277.304 2.08597 277.258 2.06068 277.212 2.03119C277.166 2.0059 277.12 1.9764 277.074 1.9469C277.028 1.92162 276.982 1.89212 276.935 1.86684C276.889 1.83734 276.843 1.80784 276.797 1.78256C276.751 1.75306 276.705 1.72356 276.659 1.69827C276.617 1.66877 276.571 1.64349 276.521 1.61399C276.479 1.58449 276.433 1.55921 276.387 1.52971C276.34 1.50443 276.294 1.47493 276.248 1.44543C276.202 1.42014 276.156 1.39065 276.11 1.36536C276.064 1.33586 276.018 1.30636 275.972 1.28108C275.926 1.25158 275.879 1.22208 275.833 1.1968C275.787 1.1673 275.745 1.14202 275.695 1.11252C275.653 1.08302 275.607 1.05773 275.561 1.02824C275.515 1.00295 275.469 0.973452 275.423 0.943954C274.547 0.404552 273.386 0 271.852 0H257.139C256.531 0 255.949 0.0800672 255.408 0.22756C254.897 0.0800672 254.348 0 253.774 0H228.744C223.543 0 218.464 1.98904 214.391 5.1496C214.345 5.1201 214.299 5.09482 214.253 5.06532C214.206 5.03582 214.16 5.01054 214.114 4.98104C214.068 4.95576 214.022 4.92626 213.976 4.89676C213.93 4.87147 213.888 4.84198 213.842 4.81669C213.796 4.78719 213.75 4.75769 213.704 4.73241C213.658 4.70291 213.611 4.67341 213.565 4.64813C213.519 4.61863 213.473 4.59335 213.427 4.56385C213.381 4.53435 213.335 4.50906 213.289 4.47957C213.243 4.45428 213.197 4.42478 213.15 4.39528C213.104 4.37 213.062 4.3405 213.012 4.31522C212.966 4.28572 212.92 4.25622 212.874 4.23093C212.828 4.20144 212.786 4.17194 212.74 4.14665C212.694 4.11715 212.648 4.09187 212.601 4.06237C212.555 4.03287 212.509 4.00759 212.463 3.97809C212.417 3.95281 212.371 3.92331 212.325 3.89381C212.279 3.86852 212.233 3.83903 212.187 3.80953C212.141 3.78424 212.094 3.75474 212.048 3.72946C212.002 3.69996 211.96 3.67046 211.914 3.64518C211.868 3.61568 211.822 3.59039 211.776 3.5609C211.73 3.5314 211.684 3.50611 211.638 3.47661C211.592 3.44712 211.545 3.42183 211.499 3.39233C211.453 3.36705 211.407 3.33755 211.361 3.30805C211.315 3.28277 211.269 3.25327 211.223 3.22377C211.177 3.19848 211.131 3.16899 211.084 3.1437C211.038 3.1142 210.992 3.0847 210.946 3.05942C210.904 3.02992 210.858 3.00042 210.812 2.97514C210.766 2.94564 210.72 2.92036 210.674 2.89086C210.628 2.86136 210.582 2.83607 210.536 2.80658C210.489 2.78129 210.443 2.75179 210.397 2.72229C210.351 2.69701 210.305 2.66751 210.259 2.64223C210.213 2.61273 210.167 2.58323 210.121 2.55795C210.075 2.52845 210.033 2.49895 209.987 2.47366C209.94 2.44417 209.894 2.41888 209.848 2.38938C209.802 2.35988 209.756 2.3346 209.71 2.3051C209.664 2.27982 209.618 2.25032 209.572 2.22082C209.526 2.19553 209.479 2.16604 209.433 2.14075C209.387 2.11125 209.341 2.08176 209.295 2.05647C209.249 2.02697 209.203 1.99747 209.157 1.97219C209.111 1.94269 209.069 1.91741 209.019 1.88791C208.977 1.85841 208.931 1.83312 208.884 1.80363C207.246 0.796462 205.008 0 202.037 0H173.252C172.292 0 171.391 0.210704 170.582 0.602613C169.824 0.214918 168.944 0 167.988 0H155.672C153.74 0 152.031 0.851244 150.874 2.3346C150.861 2.32617 150.849 2.31774 150.836 2.31353C150.79 2.28403 150.744 2.25453 150.698 2.22925C150.652 2.19975 150.606 2.17446 150.56 2.14497C150.514 2.11547 150.468 2.09018 150.421 2.06068C150.375 2.03119 150.329 2.0059 150.283 1.9764C150.237 1.9469 150.191 1.92162 150.145 1.89634C150.103 1.86684 150.057 1.83734 150.011 1.81205C149.965 1.78255 149.919 1.75306 149.872 1.72777C149.826 1.69827 149.78 1.67299 149.734 1.64349C148.075 0.58997 146.009 0 143.675 0H113.1C110.661 0 108.566 1.36115 107.501 3.64096L107.48 3.6831L103.621 12.3683L101.831 9.02656L101.79 8.95492C101.232 7.99411 100.465 7.23557 99.5518 6.72145C99.5057 6.69617 99.4596 6.66667 99.4135 6.63717C99.3674 6.61189 99.3255 6.58239 99.2752 6.55711C99.2291 6.52761 99.1872 6.49811 99.1411 6.47282C99.095 6.44333 99.0489 6.41383 99.0028 6.38854C98.9567 6.35904 98.9106 6.32955 98.8645 6.30426C98.8184 6.27476 98.7723 6.24526 98.7262 6.21998C98.6801 6.19048 98.634 6.1652 98.5879 6.1357C98.5419 6.11041 98.4999 6.08092 98.4497 6.05142C98.4036 6.02613 98.3575 5.99663 98.3114 5.96713C98.2653 5.94185 98.2234 5.91235 98.1731 5.88707C98.127 5.85757 98.0851 5.82807 98.039 5.80279C97.9929 5.77329 97.9468 5.74379 97.9007 5.7185C97.8546 5.68901 97.8085 5.66372 97.7624 5.63422C97.7163 5.60472 97.6702 5.57944 97.6241 5.54994C97.578 5.52466 97.5319 5.49516 97.4858 5.46566C97.4397 5.44038 97.3978 5.41088 97.3475 5.38559C97.3014 5.35609 97.2595 5.32659 97.2134 5.30131C97.1673 5.27181 97.1212 5.24231 97.0751 5.21703C97.029 5.18753 96.9829 5.15803 96.9369 5.13275C96.8908 5.10325 96.8447 5.07796 96.7986 5.04847C96.7525 5.02318 96.7064 4.99368 96.6603 4.96418C96.6142 4.9389 96.5681 4.9094 96.522 4.88412C96.4759 4.85462 96.4298 4.82512 96.3837 4.79984C96.3376 4.77034 96.2957 4.74084 96.2454 4.71555C96.1993 4.68605 96.1574 4.65656 96.1113 4.63127C96.0652 4.60177 96.0191 4.57228 95.973 4.54699C95.9269 4.52171 95.8808 4.49221 95.8347 4.46271C95.7886 4.43742 95.7425 4.40793 95.6964 4.38264C95.6503 4.35314 95.6042 4.32364 95.5581 4.29836C95.512 4.26886 95.4701 4.23936 95.4199 4.21408C95.3738 4.18458 95.3319 4.15508 95.2858 4.1298C95.2397 4.1003 95.1936 4.0708 95.1475 4.04552C95.1014 4.02023 95.0553 3.99073 95.0092 3.96123C94.9631 3.93595 94.917 3.90645 94.8709 3.88117C94.8248 3.85167 94.7787 3.82217 94.7326 3.79688C94.6865 3.76739 94.6404 3.73789 94.5943 3.7126C94.5482 3.68311 94.5021 3.65361 94.456 3.62832C94.4099 3.59882 94.368 3.56932 94.3177 3.54404C94.2716 3.51876 94.2297 3.48926 94.1836 3.45976C94.1375 3.43447 94.0914 3.40497 94.0453 3.37969C93.9992 3.35019 93.9531 3.32069 93.9071 3.29541C93.861 3.26591 93.8149 3.23641 93.7688 3.21113C93.7227 3.18163 93.6766 3.15213 93.6305 3.12685C93.5844 3.09735 93.5425 3.06785 93.4922 3.04256C93.4461 3.01728 93.4042 2.98778 93.3581 2.95828C93.312 2.933 93.2659 2.9035 93.2198 2.87822C93.1737 2.84872 93.1276 2.81922 93.0815 2.79393C93.0354 2.76444 92.9893 2.73494 92.9432 2.70965C92.8971 2.68015 92.851 2.65066 92.8049 2.62537C92.7588 2.59587 92.7127 2.56637 92.6666 2.54109C92.6205 2.51581 92.5744 2.48631 92.5283 2.45681C92.4822 2.43152 92.4403 2.40203 92.3901 2.37674C92.344 2.34724 92.3021 2.31774 92.256 2.29246C92.2099 2.26296 92.1638 2.23346 92.1177 2.20818C92.0716 2.17868 92.0255 2.14918 91.9794 2.1239C91.9333 2.0944 91.8872 2.0649 91.8411 2.03961C91.795 2.01012 91.7489 1.98483 91.7028 1.95533C91.6567 1.93005 91.6148 1.90055 91.5645 1.87105C91.5184 1.84577 91.4723 1.81627 91.4262 1.78677C91.3801 1.76149 91.3382 1.73199 91.2879 1.7067C91.246 1.6772 91.1999 1.64771 91.1538 1.62242C91.1077 1.59292 91.0616 1.56342 91.0155 1.53814C90.9694 1.50864 90.9233 1.48336 90.8773 1.45386C90.8312 1.42857 90.7851 1.39907 90.739 1.36958C90.6929 1.34429 90.6468 1.31479 90.6007 1.28529C90.5546 1.26001 90.5127 1.23051 90.4624 1.20523C90.4163 1.17573 90.3744 1.14623 90.3283 1.12094C90.2822 1.09145 90.2361 1.06195 90.19 1.03666C90.1439 1.00716 90.0978 0.977666 90.0517 0.952382C90.0056 0.927097 89.9595 0.897599 89.9134 0.8681C88.9747 0.303413 87.8726 0 86.6783 0H84.3525C82.8523 0 81.4065 0.480405 79.9272 1.47493L79.8895 1.50021L70.5487 8.01518C70.138 7.45892 69.6184 6.99116 69.0149 6.64139C68.9688 6.6161 68.9227 6.5866 68.8766 6.55711C68.8305 6.53182 68.7844 6.50232 68.7383 6.47704C68.6922 6.44754 68.6503 6.41804 68.6 6.39276C68.5581 6.36326 68.512 6.33376 68.4659 6.30848C68.4199 6.27898 68.3738 6.24948 68.3277 6.22419C68.2816 6.19469 68.2355 6.16941 68.1894 6.13991C68.1433 6.11463 68.0972 6.08513 68.0511 6.05563C68.005 6.03035 67.9589 6.00085 67.9128 5.97556C67.8667 5.94606 67.8206 5.91657 67.7745 5.89128C67.7284 5.86178 67.6823 5.83228 67.6362 5.807C67.5901 5.7775 67.5482 5.748 67.4979 5.72272C67.456 5.69322 67.4099 5.66793 67.3638 5.63844C67.3177 5.61315 67.2716 5.58365 67.2255 5.55416C67.1794 5.52887 67.1333 5.49937 67.0872 5.46987C67.0411 5.44459 66.995 5.41509 66.949 5.38981C66.9029 5.36031 66.8568 5.33081 66.8107 5.30552C66.7646 5.27603 66.7227 5.24653 66.6724 5.22124C66.6305 5.19174 66.5844 5.16646 66.5383 5.13696C66.4922 5.10746 66.4461 5.08218 66.4 5.05268C66.3539 5.02318 66.3078 4.9979 66.2617 4.9684C66.2156 4.94311 66.1695 4.91362 66.1234 4.88833C66.0773 4.85883 66.0312 4.82933 65.9851 4.80405C65.939 4.77455 65.8929 4.74505 65.8468 4.71977C65.8007 4.69027 65.7546 4.66077 65.7085 4.63549C65.6624 4.60599 65.6205 4.5807 65.5702 4.5512C65.5283 4.52171 65.4822 4.49642 65.4361 4.46692C65.39 4.44164 65.344 4.41214 65.2979 4.38686C65.2518 4.35736 65.2057 4.32786 65.1596 4.30257C65.1135 4.27308 65.0674 4.24358 65.0213 4.21829C64.9752 4.18879 64.9291 4.15929 64.883 4.13401C64.8369 4.10451 64.795 4.07923 64.7447 4.04973C64.6986 4.02023 64.6525 3.99495 64.6064 3.96545C64.5645 3.94016 64.5184 3.91066 64.4681 3.88117C64.4262 3.85588 64.3801 3.82638 64.334 3.8011C64.2879 3.7716 64.2418 3.7421 64.1957 3.71682C64.1496 3.68732 64.1035 3.65782 64.0574 3.63254C64.0113 3.60304 63.9652 3.57775 63.9192 3.54825C63.8731 3.51876 63.827 3.49347 63.7809 3.46397C63.7348 3.43869 63.6929 3.40919 63.6426 3.37969C63.6007 3.35441 63.5546 3.32491 63.5085 3.29962C63.4624 3.27012 63.4163 3.24063 63.3702 3.21534C63.3241 3.18584 63.278 3.15635 63.2319 3.13106C63.1858 3.10156 63.1397 3.07628 63.0936 3.04678C63.0475 3.01728 63.0014 2.992 62.9553 2.9625C62.9092 2.93721 62.8631 2.90771 62.817 2.88243C62.7709 2.85293 62.7248 2.82343 62.6787 2.79815C62.6368 2.76865 62.5907 2.73915 62.5446 2.71387C62.4985 2.68437 62.4524 2.65487 62.4063 2.62958C62.3602 2.60009 62.3142 2.5748 62.2681 2.5453C62.222 2.51581 62.1759 2.49052 62.1298 2.46102C62.0837 2.43574 62.0376 2.40624 61.9915 2.38095C61.9454 2.35146 61.8993 2.32196 61.8532 2.29667C61.8071 2.26717 61.7652 2.23767 61.7191 2.21239C61.673 2.18289 61.6269 2.15339 61.5808 2.12811C61.5347 2.09861 61.4886 2.07333 61.4425 2.04383C61.3964 2.01433 61.3503 1.98905 61.3042 1.95955C61.2581 1.93426 61.212 1.90476 61.1659 1.87526C61.1198 1.84998 61.0737 1.82048 61.0276 1.7952C60.9815 1.7657 60.9354 1.7362 60.8894 1.71092C60.8433 1.68142 60.7972 1.65192 60.7511 1.62663C60.7092 1.59714 60.6631 1.57185 60.617 1.54235C60.5709 1.51285 60.5248 1.48757 60.4787 1.45807C60.4326 1.43279 60.3865 1.40329 60.3404 1.37379C60.2943 1.3485 60.2482 1.31901 60.2021 1.28951C60.156 1.26422 60.1099 1.23473 60.0638 1.20944C60.0177 1.17994 59.9716 1.15044 59.9255 1.12516C59.8794 1.09566 59.8375 1.06616 59.7872 1.04088C59.7453 1.01138 59.6992 0.986095 59.6531 0.956596C59.607 0.927097 59.5609 0.901813 59.5148 0.872314C59.4687 0.842815 59.4226 0.817531 59.3765 0.788033C58.572 0.286557 57.6123 0 56.5688 0H49.0132C46.9095 0 45.1034 0.674252 43.6115 1.33586L37.1119 4.22251C37.1035 4.21408 37.0952 4.20986 37.0826 4.20144C37.0407 4.17615 36.9904 4.14665 36.9443 4.12137C36.9024 4.09187 36.8563 4.06237 36.806 4.03709C36.7641 4.00759 36.718 3.97809 36.6677 3.95281C36.6258 3.92331 36.5797 3.89802 36.5336 3.86852C36.4875 3.83902 36.4414 3.81374 36.3953 3.78424C36.3492 3.75474 36.3031 3.72946 36.257 3.69996C36.2109 3.67046 36.1648 3.64518 36.1187 3.61989C36.0726 3.59039 36.0265 3.5609 35.9805 3.53561C35.9385 3.50611 35.8924 3.47661 35.8464 3.45133C35.8003 3.42183 35.7542 3.39655 35.7081 3.36705C35.662 3.33755 35.6159 3.31227 35.5698 3.28277C35.5237 3.25327 35.4776 3.22798 35.4315 3.19849C35.3854 3.16899 35.3393 3.1437 35.2932 3.11842C35.2471 3.08892 35.201 3.05942 35.1549 3.03414C35.113 3.00464 35.0627 2.97514 35.0166 2.94985C34.9705 2.92036 34.9244 2.89507 34.8783 2.86557C34.8364 2.83607 34.7903 2.81079 34.7442 2.78129C34.6981 2.75179 34.652 2.72651 34.6059 2.69701C34.5598 2.66751 34.5137 2.64223 34.4676 2.61694C34.4215 2.58744 34.3755 2.55795 34.3294 2.53266C34.2833 2.50316 34.2372 2.47366 34.1911 2.44838C34.145 2.41888 34.0989 2.3936 34.0528 2.3641C34.0109 2.3346 33.9648 2.30931 33.9187 2.27982C33.8726 2.25032 33.8265 2.22503 33.7804 2.19553C33.7343 2.16604 33.6882 2.14075 33.6421 2.11547C33.596 2.08597 33.5499 2.05647 33.5038 2.03119C33.4577 2.00169 33.4116 1.97219 33.3655 1.9469C33.3194 1.91741 33.2733 1.89212 33.2272 1.86262C33.1811 1.83312 33.135 1.80784 33.0889 1.77834C33.0428 1.74884 32.9967 1.72356 32.9507 1.69406C32.9087 1.66456 32.8626 1.63928 32.8166 1.61399C32.7705 1.58449 32.7244 1.55499 32.6783 1.52971C32.6322 1.50021 32.5861 1.47071 32.54 1.44543C32.4939 1.41593 32.4478 1.39065 32.4017 1.36115C32.3556 1.33165 32.3095 1.30636 32.2634 1.27687C32.2173 1.24737 32.1712 1.22208 32.1251 1.19258C32.0832 1.16309 32.0371 1.1378 31.991 1.1083C31.9449 1.08302 31.8988 1.05352 31.8527 1.02824C31.8066 0.998737 31.7605 0.969239 31.7144 0.943954C31.6683 0.914455 31.6222 0.884957 31.5761 0.859672C30.7213 0.311842 29.682 0 28.5338 0H16.2176C13.7996 0 11.7169 1.36115 10.6525 3.64096L10.6315 3.6831L0.582493 26.3043C0.192767 27.1302 0 27.9562 0 28.8327C0 30.7333 1.01412 32.3599 2.56045 33.2491C2.60655 33.2786 2.65265 33.3081 2.69874 33.3334C2.74484 33.3629 2.78675 33.3924 2.83703 33.4176C2.87894 33.4471 2.92923 33.4724 2.97532 33.5019C3.02142 33.5314 3.06333 33.5567 3.11361 33.5862C3.15552 33.6115 3.20161 33.641 3.24771 33.6705C3.29381 33.6958 3.3399 33.7253 3.386 33.7548C3.4321 33.7801 3.47819 33.8095 3.52429 33.8348C3.57039 33.8643 3.61648 33.8938 3.66258 33.9191C3.70868 33.9486 3.75477 33.9781 3.80087 34.0034C3.84697 34.0329 3.88887 34.0582 3.93916 34.0877C3.98107 34.1172 4.02716 34.1425 4.07326 34.172C4.11936 34.1972 4.16545 34.2267 4.21155 34.252C4.25765 34.2815 4.30374 34.311 4.34984 34.3363C4.39593 34.3658 4.44203 34.3953 4.48813 34.4206C4.53422 34.4501 4.58032 34.4796 4.62642 34.5049C4.67251 34.5344 4.71861 34.5639 4.76471 34.5892C4.8108 34.6187 4.8569 34.6439 4.903 34.6734C4.94909 34.6987 4.991 34.7282 5.04129 34.7577C5.08319 34.783 5.12929 34.8125 5.17539 34.8378C5.22148 34.8673 5.26758 34.8968 5.31367 34.9221C5.35977 34.9516 5.40587 34.9811 5.45196 35.0063C5.49806 35.0358 5.54416 35.0653 5.59025 35.0906C5.63635 35.1201 5.68245 35.1454 5.72854 35.1749C5.77464 35.2002 5.81655 35.2297 5.86683 35.255C5.90874 35.2845 5.95484 35.314 6.00093 35.3393C6.04703 35.3688 6.09313 35.3983 6.13922 35.4235C6.18532 35.453 6.23142 35.4825 6.27751 35.5078C6.32361 35.5373 6.3697 35.5668 6.4158 35.5921C6.4619 35.6216 6.50799 35.6469 6.55409 35.6764C6.60019 35.7017 6.64629 35.7312 6.69238 35.7565C6.73848 35.786 6.78457 35.8155 6.83067 35.8407C6.87677 35.8702 6.91867 35.8997 6.96896 35.925C7.01087 35.9545 7.05696 35.984 7.10306 36.0093C7.14916 36.0388 7.19525 36.0683 7.24135 36.0936C7.28745 36.1231 7.33354 36.1484 7.37964 36.1779C7.42574 36.2031 7.47183 36.2326 7.51793 36.2579C7.56402 36.2874 7.61012 36.3169 7.65622 36.3422C7.70231 36.3717 7.74422 36.4012 7.79451 36.4265C7.83641 36.456 7.88251 36.4855 7.92861 36.5108C7.9747 36.5403 8.0208 36.5698 8.0669 36.5951C8.11299 36.6246 8.15909 36.6498 8.20519 36.6793C8.25128 36.7046 8.29738 36.7341 8.34348 36.7636C8.38957 36.7889 8.43567 36.8184 8.48176 36.8437C8.52786 36.8732 8.57396 36.9027 8.62005 36.928C8.66615 36.9575 8.71225 36.987 8.75834 37.0122C8.80444 37.0417 8.84635 37.067 8.89244 37.0965C8.93854 37.126 8.98464 37.1513 9.03073 37.1808C9.07683 37.2061 9.12293 37.2356 9.16902 37.2651C9.21512 37.2904 9.26122 37.3199 9.30731 37.3494C9.35341 37.3747 9.39951 37.4042 9.4456 37.4294C9.4917 37.4589 9.53779 37.4884 9.58389 37.5137C9.62999 37.5432 9.67189 37.5727 9.72218 37.598C9.76828 37.6275 9.81437 37.6528 9.86047 37.6823C9.90657 37.7118 9.94847 37.7371 9.99457 37.7666C10.0407 37.7919 10.0868 37.8214 10.1329 37.8509C10.179 37.8761 10.2251 37.9056 10.2711 37.9309C10.3172 37.9604 10.3633 37.9899 10.4094 38.0152C10.4555 38.0447 10.5016 38.0742 10.5477 38.0995C10.5938 38.129 10.6399 38.1585 10.686 38.1838C10.7321 38.2133 10.774 38.2385 10.8243 38.268C10.8662 38.2975 10.9123 38.3228 10.9584 38.3523C11.0045 38.3776 11.0506 38.4071 11.0967 38.4324C11.1428 38.4619 11.1889 38.4914 11.235 38.5167C11.2811 38.5462 11.3272 38.5757 11.3733 38.601C11.4194 38.6305 11.4655 38.66 11.5116 38.6852C11.5577 38.7147 11.6038 38.74 11.6499 38.7695C11.696 38.799 11.7379 38.8243 11.7881 38.8538C11.8301 38.8791 11.8761 38.9086 11.9222 38.9339C11.9683 38.9634 12.0144 38.9929 12.0605 39.0181C12.1066 39.0476 12.1527 39.0771 12.1988 39.1024C13.0328 39.6165 14.0259 39.9157 15.1071 39.9157H27.2933C29.77 39.9157 31.8653 38.5125 32.9004 36.1736L33.7594 34.2436C33.7762 34.2562 33.7972 34.2647 33.8181 34.2773C33.86 34.3026 33.9061 34.3321 33.9522 34.3616C33.9983 34.3869 34.0444 34.4164 34.0905 34.4417C34.1366 34.4712 34.1827 34.5007 34.2288 34.5259C34.2707 34.5554 34.3168 34.5807 34.3629 34.6102C34.409 34.6355 34.4551 34.665 34.5012 34.6903C34.5473 34.7198 34.5934 34.7493 34.6395 34.7746C34.6814 34.8041 34.7275 34.8336 34.7736 34.8589C34.8197 34.8884 34.8658 34.9136 34.9118 34.9431C34.9579 34.9684 35.004 34.9979 35.0501 35.0232C35.092 35.0527 35.1381 35.0822 35.1842 35.1075C35.2303 35.137 35.2764 35.1665 35.3225 35.1918C35.3686 35.2171 35.4147 35.2465 35.4608 35.276C35.5027 35.3013 35.5488 35.3308 35.5949 35.3561C35.641 35.3856 35.6871 35.4151 35.7332 35.4404C35.7793 35.4699 35.8254 35.4952 35.8715 35.5247C35.9176 35.5542 35.9595 35.5795 36.0056 35.609C36.0517 35.6342 36.0978 35.6637 36.1439 35.689C36.19 35.7185 36.2361 35.748 36.2822 35.7733C36.3283 35.8028 36.3702 35.8281 36.4163 35.8576C36.4624 35.8829 36.5085 35.9124 36.5546 35.9377C36.6007 35.9672 36.6468 35.9967 36.6929 36.0219C36.7389 36.0514 36.7809 36.0809 36.827 36.1062C36.873 36.1357 36.9191 36.161 36.9652 36.1905C37.0113 36.2158 37.0574 36.2453 37.1035 36.2706C37.1496 36.3001 37.1915 36.3296 37.2376 36.3549C37.2837 36.3844 37.3298 36.4138 37.3759 36.4391C37.422 36.4644 37.4681 36.4939 37.5142 36.5234C37.5603 36.5487 37.6022 36.5782 37.6483 36.6035C37.6944 36.633 37.7405 36.6625 37.7866 36.6878C37.8327 36.7173 37.8788 36.7425 37.9249 36.772C37.971 36.7973 38.0129 36.8268 38.0632 36.8563C38.1093 36.8816 38.1512 36.9111 38.1973 36.9364C38.2434 36.9659 38.2895 36.9954 38.3356 37.0207C38.3817 37.0502 38.4278 37.0797 38.4739 37.105C38.52 37.1302 38.5619 37.1597 38.608 37.185C38.6541 37.2145 38.7001 37.244 38.7462 37.2693C38.7923 37.2988 38.8384 37.3283 38.8845 37.3536C38.9306 37.3789 38.9725 37.4084 39.0186 37.4379C39.0647 37.4632 39.1108 37.4927 39.1569 37.5179C39.203 37.5474 39.2491 37.5769 39.2952 37.6022C39.3413 37.6317 39.3832 37.657 39.4293 37.6865C39.4754 37.716 39.5215 37.7413 39.5676 37.7708C39.6137 37.7961 39.6598 37.8256 39.7059 37.8509C39.752 37.8803 39.7939 37.9098 39.84 37.9351C39.8861 37.9646 39.9322 37.9899 39.9783 38.0194C40.0244 38.0447 40.0705 38.0742 40.1166 38.0995C40.1627 38.129 40.2088 38.1585 40.2549 38.1838C40.2968 38.2133 40.3429 38.2428 40.389 38.268C40.4351 38.2975 40.4812 38.3228 40.5272 38.3523C40.5733 38.3776 40.6194 38.4071 40.6655 38.4324C40.7074 38.4619 40.7535 38.4914 40.7996 38.5167C40.8457 38.5462 40.8918 38.5757 40.9379 38.601C40.984 38.6262 41.0301 38.6557 41.0762 38.6852C41.1181 38.7105 41.1642 38.74 41.2103 38.7653C41.2564 38.7948 41.3025 38.8243 41.3486 38.8496C41.3947 38.8791 41.4408 38.9044 41.4869 38.9339C42.5555 39.5828 43.7959 39.9157 45.204 39.9157H57.3483C57.7171 39.9157 58.0817 39.8862 58.4295 39.8315C58.7354 39.8862 59.0539 39.9157 59.3765 39.9157H83.1288C84.9769 39.9157 86.6573 39.0856 87.8055 37.6823C87.8223 37.6907 87.8391 37.6991 87.8558 37.7076C87.8977 37.7371 87.948 37.7624 87.9941 37.7919C88.036 37.8171 88.0821 37.8466 88.1282 37.8719C88.1743 37.9014 88.2204 37.9309 88.2665 37.9562C88.3126 37.9857 88.3587 38.011 88.4048 38.0405C88.4467 38.07 88.4928 38.0953 88.5389 38.1248C88.585 38.1501 88.6311 38.1795 88.6772 38.209C88.7233 38.2343 88.7694 38.2638 88.8155 38.2891C88.8574 38.3186 88.9035 38.3439 88.9496 38.3734C88.9957 38.4029 89.0418 38.4282 89.0879 38.4577C89.134 38.483 89.1801 38.5125 89.2262 38.5377C89.2681 38.5672 89.3142 38.5967 89.3603 38.622C89.4064 38.6515 89.4524 38.6768 89.4985 38.7063C89.5446 38.7316 89.5907 38.7611 89.6368 38.7906C89.6787 38.8159 89.7248 38.8454 89.7709 38.8707C89.817 38.9002 89.8631 38.9297 89.9092 38.9549C90.7809 39.5028 91.9375 39.9157 93.4545 39.9157H108.197C108.763 39.9157 109.307 39.8399 109.823 39.7008C110.317 39.8399 110.845 39.9157 111.399 39.9157H123.614C126.112 39.9157 128.224 38.5125 129.263 36.1652L131.417 31.2853H139.291C139.714 32.0944 140.356 32.7687 141.148 33.2449C141.194 33.2744 141.24 33.2996 141.286 33.3249C141.328 33.3544 141.374 33.3839 141.42 33.4092C141.466 33.4387 141.512 33.464 141.558 33.4935C141.604 33.523 141.651 33.5483 141.697 33.5778C141.739 33.6031 141.785 33.6326 141.831 33.6578C141.877 33.6873 141.923 33.7168 141.969 33.7421C142.015 33.7716 142.061 33.7969 142.107 33.8264C142.149 33.8559 142.195 33.8812 142.241 33.9107C142.287 33.936 142.334 33.9655 142.38 33.9908C142.426 34.0203 142.472 34.0455 142.518 34.075C142.56 34.1045 142.606 34.1298 142.652 34.1593C142.698 34.1846 142.744 34.2141 142.79 34.2394C142.836 34.2689 142.883 34.2984 142.929 34.3237C142.975 34.3532 143.021 34.3827 143.067 34.4079C143.109 34.4374 143.155 34.4627 143.201 34.4922C143.247 34.5217 143.293 34.547 143.339 34.5723C143.385 34.6018 143.432 34.6313 143.478 34.6566C143.52 34.6861 143.566 34.7114 143.612 34.7409C143.658 34.7704 143.704 34.7956 143.75 34.8209C143.796 34.8504 143.842 34.8799 143.888 34.9052C143.93 34.9347 143.976 34.96 144.022 34.9895C144.068 35.019 144.115 35.0443 144.161 35.0738C144.207 35.1033 144.253 35.1286 144.299 35.1581C144.341 35.1833 144.387 35.2128 144.433 35.2381C144.479 35.2676 144.525 35.2929 144.571 35.3224C144.617 35.3519 144.664 35.3772 144.71 35.4067C144.752 35.4362 144.798 35.4615 144.844 35.4868C144.89 35.5163 144.936 35.5458 144.982 35.571C145.028 35.6005 145.074 35.6258 145.12 35.6553C145.166 35.6848 145.213 35.7101 145.254 35.7396C145.301 35.7649 145.347 35.7944 145.393 35.8197C145.439 35.8492 145.485 35.8787 145.531 35.9039C145.573 35.9334 145.623 35.9587 145.665 35.9882C145.711 36.0177 145.757 36.043 145.803 36.0725C145.849 36.0978 145.896 36.1273 145.942 36.1526C145.984 36.1821 146.034 36.2074 146.076 36.2369C146.122 36.2664 146.168 36.2916 146.214 36.3211C146.26 36.3506 146.306 36.3759 146.352 36.4054C146.394 36.4307 146.445 36.4602 146.486 36.4855C146.533 36.515 146.579 36.5445 146.625 36.5698C146.671 36.5993 146.717 36.6246 146.763 36.6541C146.809 36.6835 146.855 36.7088 146.897 36.7341C146.943 36.7636 146.989 36.7931 147.035 36.8184C147.082 36.8479 147.128 36.8732 147.174 36.9027C147.22 36.9322 147.266 36.9575 147.312 36.9828C147.354 37.0122 147.4 37.0417 147.446 37.067C147.492 37.0965 147.538 37.126 147.584 37.1513C147.63 37.1808 147.677 37.2061 147.723 37.2356C147.765 37.2651 147.811 37.2904 147.857 37.3199C147.903 37.3452 147.949 37.3747 147.995 37.3999C148.041 37.4294 148.087 37.4547 148.133 37.4842C148.175 37.5137 148.221 37.539 148.267 37.5685C148.314 37.598 148.36 37.6233 148.406 37.6486C148.452 37.6781 148.498 37.7076 148.544 37.7329C148.586 37.7624 148.632 37.7876 148.678 37.8171C148.724 37.8466 148.77 37.8719 148.816 37.9014C148.863 37.9267 148.909 37.9562 148.955 37.9815C148.997 38.011 149.043 38.0405 149.089 38.0658C149.135 38.0953 149.181 38.1206 149.227 38.15C149.273 38.1795 149.319 38.2048 149.365 38.2343C149.411 38.2596 149.458 38.2891 149.504 38.3144C149.546 38.3439 149.592 38.3692 149.638 38.3987C149.684 38.4282 149.73 38.4535 149.776 38.483C149.822 38.5082 149.868 38.5377 149.914 38.5672C149.956 38.5925 150.002 38.622 150.048 38.6473C150.095 38.6768 150.141 38.7063 150.187 38.7316C150.233 38.7611 150.279 38.7864 150.325 38.8159C150.367 38.8454 150.413 38.8707 150.459 38.8959C150.505 38.9254 150.551 38.9549 150.597 38.9802C150.644 39.0097 150.69 39.035 150.736 39.0645C151.578 39.6039 152.605 39.9157 153.74 39.9157H166.916C167.854 39.9157 168.751 39.7008 169.556 39.3089C170.314 39.6966 171.19 39.9157 172.141 39.9157H200.926C205.88 39.9157 211.034 38.0405 215.313 34.724C215.351 34.7493 215.384 34.7704 215.422 34.7914C215.468 34.8209 215.514 34.8462 215.56 34.8757C215.606 34.901 215.652 34.9305 215.698 34.96C215.744 34.9853 215.791 35.0148 215.837 35.0443C215.883 35.0696 215.929 35.0991 215.975 35.1243C216.021 35.1538 216.063 35.1833 216.109 35.2086C216.155 35.2381 216.201 35.2676 216.247 35.2929C216.293 35.3224 216.339 35.3477 216.386 35.3772C216.432 35.4067 216.478 35.432 216.524 35.4615C216.57 35.4868 216.616 35.5163 216.662 35.5457C216.708 35.571 216.754 35.6005 216.8 35.6258C216.847 35.6553 216.888 35.6848 216.935 35.7101C216.981 35.7396 217.027 35.7691 217.073 35.7944C217.119 35.8239 217.165 35.8492 217.211 35.8787C217.257 35.9039 217.303 35.9334 217.349 35.9629C217.396 35.9882 217.442 36.0177 217.488 36.0472C217.534 36.0725 217.58 36.102 217.626 36.1273C217.672 36.1568 217.718 36.1863 217.764 36.2116C217.81 36.2411 217.852 36.2706 217.903 36.2959C217.949 36.3254 217.991 36.3506 218.037 36.3801C218.083 36.4096 218.129 36.4349 218.175 36.4644C218.221 36.4939 218.267 36.5192 218.313 36.5487C218.359 36.574 218.405 36.6035 218.452 36.633C218.498 36.6583 218.544 36.6878 218.59 36.713C218.636 36.7425 218.682 36.772 218.728 36.7973C218.774 36.8268 218.816 36.8563 218.862 36.8816C218.908 36.9111 218.954 36.9364 219.001 36.9659C219.047 36.9954 219.093 37.0207 219.139 37.0502C219.185 37.0755 219.231 37.105 219.277 37.1345C219.323 37.1597 219.369 37.1892 219.415 37.2145C219.461 37.244 219.508 37.2735 219.554 37.2988C219.6 37.3283 219.646 37.3578 219.692 37.3831C219.738 37.4126 219.78 37.4421 219.83 37.4674C219.876 37.4969 219.918 37.5222 219.964 37.5517C220.01 37.5769 220.057 37.6064 220.103 37.6359C220.149 37.6612 220.195 37.6907 220.241 37.7202C220.287 37.7455 220.333 37.775 220.379 37.8003C220.425 37.8298 220.471 37.8593 220.518 37.8846C220.564 37.9141 220.61 37.9436 220.656 37.9688C220.702 37.9983 220.744 38.0236 220.79 38.0531C220.84 38.0784 220.882 38.1079 220.932 38.1374C222.814 39.2794 225.089 39.9157 227.637 39.9157H252.773C255.283 39.9157 257.407 38.504 258.451 36.1441L259.394 33.9739C259.917 32.9246 260.001 31.9427 260.001 31.4202C260.001 30.2992 259.653 29.2752 259.054 28.4366C260.165 28.1458 261.137 27.5643 261.883 26.751L264.041 30.7796C264.594 31.8163 265.374 32.6254 266.317 33.169C266.363 33.1985 266.409 33.228 266.455 33.2533C266.497 33.2828 266.543 33.3123 266.589 33.3376C266.635 33.3671 266.681 33.3924 266.727 33.4219C266.773 33.4471 266.819 33.4766 266.865 33.5061C266.912 33.5314 266.958 33.5609 267.004 33.5862C267.05 33.6157 267.096 33.6452 267.142 33.6705C267.188 33.7 267.234 33.7295 267.28 33.7548C267.326 33.7843 267.373 33.8138 267.419 33.839C267.465 33.8685 267.507 33.8938 267.557 33.9233C267.599 33.9486 267.645 33.9781 267.691 34.0076C267.737 34.0329 267.783 34.0624 267.829 34.0877C267.875 34.1172 267.922 34.1467 267.968 34.172C268.014 34.2015 268.06 34.231 268.106 34.2562C268.152 34.2857 268.198 34.3152 268.244 34.3405C268.29 34.37 268.336 34.3953 268.382 34.4248C268.424 34.4501 268.47 34.4796 268.517 34.5091C268.563 34.5344 268.609 34.5639 268.655 34.5892C268.701 34.6187 268.747 34.6482 268.793 34.6734C268.839 34.7029 268.885 34.7324 268.931 34.7577C268.978 34.7872 269.024 34.8167 269.07 34.842C269.116 34.8715 269.162 34.8968 269.208 34.9263C269.254 34.9516 269.3 34.9811 269.346 35.0106C269.392 35.0358 269.434 35.0653 269.485 35.0906C269.527 35.1201 269.573 35.1496 269.619 35.1749C269.665 35.2044 269.711 35.2339 269.757 35.2592C269.803 35.2887 269.849 35.3182 269.895 35.3435C269.941 35.373 269.987 35.3983 270.034 35.4278C270.08 35.453 270.126 35.4825 270.172 35.512C270.218 35.5373 270.264 35.5668 270.31 35.5963C270.352 35.6216 270.398 35.6511 270.444 35.6764C270.49 35.7059 270.536 35.7354 270.583 35.7607C270.629 35.7902 270.675 35.8197 270.721 35.8449C270.767 35.8744 270.813 35.8997 270.859 35.9292C270.905 35.9587 270.951 35.984 270.997 36.0135C271.044 36.0388 271.09 36.0683 271.136 36.0978C271.182 36.1231 271.228 36.1526 271.274 36.1821C271.32 36.2074 271.362 36.2369 271.412 36.2621C271.454 36.2916 271.5 36.3211 271.546 36.3464C271.592 36.3759 271.639 36.4054 271.685 36.4307C271.731 36.4602 271.777 36.4855 271.823 36.515C271.869 36.5445 271.915 36.5698 271.961 36.5993C272.007 36.6246 272.053 36.6541 272.1 36.6836C272.146 36.7088 272.192 36.7383 272.238 36.7636C272.28 36.7931 272.326 36.8226 272.372 36.8479C272.418 36.8774 272.464 36.9069 272.514 36.9322C272.556 36.9617 272.602 36.9912 272.649 37.0165C272.695 37.046 272.741 37.0712 272.787 37.1007C272.833 37.126 272.879 37.1555 272.925 37.185C272.971 37.2103 273.017 37.2398 273.063 37.2651C273.109 37.2946 273.156 37.3241 273.202 37.3494C273.248 37.3789 273.29 37.4084 273.34 37.4337C273.382 37.4632 273.428 37.4927 273.474 37.5179C273.52 37.5474 273.566 37.5727 273.612 37.6022C273.658 37.6275 273.705 37.657 273.751 37.6865C273.797 37.7118 273.843 37.7413 273.889 37.7666C273.935 37.7961 273.981 37.8256 274.027 37.8509C274.073 37.8803 274.119 37.9098 274.166 37.9351C274.212 37.9646 274.258 37.9941 274.304 38.0194C274.35 38.0489 274.392 38.0742 274.438 38.1037C274.484 38.129 274.53 38.1585 274.576 38.188C274.622 38.2133 274.668 38.2428 274.714 38.268C274.761 38.2975 274.807 38.327 274.853 38.3523C274.899 38.3818 274.945 38.4113 274.991 38.4366C275.037 38.4661 275.083 38.4956 275.129 38.5209C275.175 38.5504 275.217 38.5757 275.268 38.6052C275.31 38.6305 275.356 38.66 275.402 38.6895C275.448 38.7147 275.494 38.7442 275.54 38.7695C275.586 38.799 275.632 38.8285 275.678 38.8538C275.724 38.8833 275.771 38.9128 275.817 38.9381C275.863 38.9676 275.909 38.9971 275.955 39.0224C276.889 39.6039 277.992 39.9157 279.194 39.9157H281.558C283.1 39.9157 284.625 39.3806 286.084 38.3313L318.695 15.6174L318.82 15.5162C320.748 13.9655 321.155 12.2293 321.155 11.0409C321.155 9.14455 320.157 7.51792 318.644 6.63717Z" fill="#241F23"/>
<path d="M34.7777 29.1279C33.7678 29.1279 33.2566 28.8371 32.7537 28.1418L25.1897 17.3369C25.0472 17.122 24.9759 16.9365 24.9759 16.6837C24.9759 16.3929 25.0472 16.0642 25.2986 15.5922L25.7344 14.5387C26.0948 13.7001 26.4217 13.4093 27.1089 13.0807L44.7262 5.25932C45.9582 4.71571 47.1148 4.31537 48.2715 4.31537H55.9067C56.2671 4.31537 56.4138 4.49657 56.4138 4.71571C56.4138 4.96855 56.2336 5.33096 55.6888 5.55009L37.6022 13.5189L48.3804 27.4886C48.5271 27.6698 48.5648 27.8889 48.5648 28.0701C48.5648 28.6559 48.0913 29.1279 47.1148 29.1279H34.7777ZM4.22411 29.1279C3.826 29.1279 3.57037 28.9804 3.57037 28.6896C3.57037 28.5084 3.60809 28.3609 3.71704 28.1418L13.8834 5.25932C14.1726 4.63985 14.6084 4.31537 15.2202 4.31537H27.6663C28.1021 4.31537 28.3536 4.45865 28.3536 4.78735C28.3536 4.93062 28.32 5.07812 28.2111 5.25932L18.0447 28.1418C17.7555 28.7992 17.3197 29.1279 16.6702 29.1279H4.22411ZM83.7574 29.1279C82.957 29.1279 82.4835 28.8708 82.1901 28.3946L74.6261 13.7296L58.5887 24.8126H75.0996C75.5732 24.8126 75.7534 24.9938 75.7534 25.2888C75.7534 25.3942 75.7199 25.6175 75.6109 25.7987L74.5926 28.1376C74.2992 28.7992 73.8299 29.1279 73.2097 29.1279H49.0551C48.7324 29.1279 48.5857 28.9804 48.5857 28.6896C48.5857 28.4367 48.8037 28.1797 49.1682 27.9268L82.0141 5.00648C82.6679 4.56821 83.2462 4.31537 83.8622 4.31537H86.2131C86.9004 4.31537 87.2608 4.56821 87.5164 5.00648L99.7445 27.8552C99.7823 27.9985 99.8158 28.1418 99.8158 28.2893C99.8158 28.7275 99.4554 29.1279 98.6592 29.1279H83.7574ZM122.143 20.4974C121.703 20.4974 121.49 20.312 121.49 20.0212C121.49 19.8737 121.49 19.6925 121.594 19.5071L122.65 17.1683C122.944 16.5109 123.379 16.1822 124.033 16.1822H128.567C132.1 16.1822 134.799 14.2732 134.799 11.0115C134.799 9.43547 133.634 8.63058 131.92 8.63058H124.205L115.585 28.146C115.296 28.7992 114.826 29.1279 114.177 29.1279H101.798C101.362 29.1279 101.144 28.9804 101.144 28.6896C101.144 28.5084 101.182 28.3609 101.253 28.1418L111.42 5.25932C111.709 4.63985 112.145 4.31537 112.794 4.31537H143.574C147.153 4.31537 149.374 6.25806 149.374 9.5619C149.374 16.1654 142.627 20.4974 135.511 20.4974H122.143ZM144.634 29.1279C144.203 29.1279 143.985 28.9804 143.985 28.6896C143.985 28.5084 144.022 28.3609 144.094 28.1418L154.26 5.25932C154.549 4.63985 155.018 4.31537 155.635 4.31537H168.081C168.55 4.31537 168.768 4.45865 168.768 4.78735C168.768 4.93062 168.73 5.07812 168.621 5.25932L158.492 28.1418C158.203 28.7992 157.734 29.1279 157.118 29.1279H144.634ZM193.731 14.2774C194.486 12.575 194.884 11.3065 194.884 10.4764C194.884 9.09835 193.911 8.63058 192.076 8.63058H184.768L177.639 24.8126H184.91C187.789 24.8126 189.809 23.1102 192.005 18.2218L193.731 14.2774ZM162.293 29.1279C161.858 29.1279 161.644 28.9804 161.644 28.6896C161.644 28.5084 161.677 28.3609 161.753 28.146L171.919 5.25932C172.208 4.63985 172.64 4.31537 173.294 4.31537H202.381C207.447 4.31537 210.121 7.58971 210.121 12.0608C210.121 20.9399 200.499 29.1279 191.38 29.1279H162.293ZM230.814 18.3398C230.374 18.3398 230.152 18.1923 230.152 17.8973C230.152 17.7498 230.189 17.5644 230.298 17.379L231.325 14.9812C231.618 14.3533 232.096 14.0246 232.758 14.0246H250.254C250.765 14.0246 251.021 14.1342 251.021 14.3912C251.021 14.4671 250.983 14.5766 250.95 14.6862L249.592 17.674C249.407 18.1165 248.967 18.3398 248.343 18.3398H230.814ZM218.25 29.1279C213.331 29.1279 210.544 25.8535 210.544 21.2686C210.544 12.7899 219.696 4.31537 229.247 4.31537H254.424C254.864 4.31537 255.086 4.46286 255.086 4.79577C255.086 4.93905 255.048 5.08654 254.973 5.27196L253.912 7.63185C253.615 8.29767 253.141 8.63058 252.479 8.63058H235.734C232.637 8.63058 230.944 9.82317 228.999 14.2774L227.273 18.2218C226.372 20.2488 225.902 21.6984 225.902 22.7477C225.902 24.2311 226.841 24.8126 228.568 24.8126H245.477C245.913 24.8126 246.135 24.9938 246.135 25.2888C246.135 25.3942 246.097 25.6175 245.988 25.7987L244.97 28.1376C244.676 28.7992 244.207 29.1279 243.549 29.1279H218.25ZM274.354 28.3988C273.705 28.8708 273.089 29.1279 272.51 29.1279H270.122C269.472 29.1279 269.112 28.8708 268.856 28.3988L256.628 5.55009C256.557 5.44053 256.557 5.25932 256.557 5.14976C256.557 4.67778 256.917 4.31537 257.713 4.31537H272.586C273.378 4.31537 273.885 4.53029 274.14 5.04019L281.662 19.6293L302.758 5.04019C303.445 4.56821 304.132 4.31537 304.962 4.31537H307.317C307.64 4.31537 307.787 4.45865 307.787 4.71149C307.787 4.96855 307.569 5.22561 307.208 5.51217L274.354 28.3988Z" fill="#F7F2EA"/>
</svg>
