<svg width="44" height="46" viewBox="0 -4 44 46" fill="none" xmlns="http://www.w3.org/2000/svg">
<rect x="1" y="1" width="40" height="40" rx="11" fill="#A7A5A7"/>
<rect x="1" y="1" width="40" height="40" rx="11" stroke="#241F23" stroke-width="2"/>
<path fill-rule="evenodd" clip-rule="evenodd" d="M26.7145 26.7145C26.1886 27.2403 25.336 27.2403 24.8101 26.7145L21 22.9044L17.1899 26.7145C16.664 27.2403 15.8114 27.2403 15.2855 26.7145V26.7145C14.7596 26.1886 14.7596 25.336 15.2855 24.8101L19.0956 21L15.2855 17.1899C14.7596 16.664 14.7596 15.8114 15.2855 15.2855V15.2855C15.8114 14.7596 16.664 14.7596 17.1899 15.2855L21 19.0956L24.8101 15.2855C25.336 14.7596 26.1886 14.7596 26.7145 15.2855V15.2855C27.2403 15.8114 27.2403 16.664 26.7145 17.1899L22.9044 21L26.7145 24.8101C27.2403 25.336 27.2403 26.1886 26.7145 26.7145V26.7145Z" fill="#241F23"/>
</svg>
