<svg width="44" height="46" viewBox="0 0 44 46" fill="none" xmlns="http://www.w3.org/2000/svg">
<g filter="url(#filter0_d_1094_1022)">
<rect x="2" width="42" height="42" rx="12" fill="white"/>
<rect x="3" y="1" width="40" height="40" rx="11" stroke="#241F23" stroke-width="2"/>
<path fill-rule="evenodd" clip-rule="evenodd" d="M13.3333 13C12.781 13 12.3333 13.4477 12.3333 14V14.6667C12.3333 15.219 12.781 15.6667 13.3333 15.6667H32.6666C33.2189 15.6667 33.6666 15.219 33.6666 14.6667V14C33.6666 13.4477 33.2189 13 32.6666 13H13.3333ZM12.3333 20.6667C12.3333 20.1144 12.781 19.6667 13.3333 19.6667H32.6666C33.2189 19.6667 33.6666 20.1144 33.6666 20.6667V21.3333C33.6666 21.8856 33.2189 22.3333 32.6666 22.3333H13.3333C12.781 22.3333 12.3333 21.8856 12.3333 21.3333V20.6667ZM12.3333 27.3333C12.3333 26.781 12.781 26.3333 13.3333 26.3333H32.6666C33.2189 26.3333 33.6666 26.781 33.6666 27.3333V28C33.6666 28.5523 33.2189 29 32.6666 29H13.3333C12.781 29 12.3333 28.5523 12.3333 28V27.3333Z" fill="#241F23"/>
</g>
<defs>
<filter id="filter0_d_1094_1022" x="0" y="0" width="44" height="46" filterUnits="userSpaceOnUse" color-interpolation-filters="sRGB">
<feFlood flood-opacity="0" result="BackgroundImageFix"/>
<feColorMatrix in="SourceAlpha" type="matrix" values="0 0 0 0 0 0 0 0 0 0 0 0 0 0 0 0 0 0 127 0" result="hardAlpha"/>
<feOffset dx="-2" dy="4"/>
<feColorMatrix type="matrix" values="0 0 0 0 0.141176 0 0 0 0 0.121569 0 0 0 0 0.137255 0 0 0 1 0"/>
<feBlend mode="normal" in2="BackgroundImageFix" result="effect1_dropShadow_1094_1022"/>
<feBlend mode="normal" in="SourceGraphic" in2="effect1_dropShadow_1094_1022" result="shape"/>
</filter>
</defs>
</svg>
