<svg width="44" height="46" viewBox="0 0 44 46" fill="none" xmlns="http://www.w3.org/2000/svg">
<g filter="url(#filter0_d_1107_1011)">
<rect x="3" width="40" height="41" rx="12" fill="#A7A5A7"/>
<rect x="3" y="1" width="40" height="40" rx="11" stroke="#241F23" stroke-width="2"/>
<path fill-rule="evenodd" clip-rule="evenodd" d="M28.7145 26.7145C28.1886 27.2403 27.336 27.2403 26.8101 26.7145L23 22.9044L19.1899 26.7145C18.664 27.2403 17.8114 27.2403 17.2855 26.7145V26.7145C16.7596 26.1886 16.7596 25.336 17.2855 24.8101L21.0956 21L17.2855 17.1899C16.7596 16.664 16.7596 15.8114 17.2855 15.2855V15.2855C17.8114 14.7596 18.664 14.7596 19.1899 15.2855L23 19.0956L26.8101 15.2855C27.336 14.7596 28.1886 14.7596 28.7145 15.2855V15.2855C29.2403 15.8114 29.2403 16.664 28.7145 17.1899L24.9044 21L28.7145 24.8101C29.2403 25.336 29.2403 26.1886 28.7145 26.7145V26.7145Z" fill="#241F23"/>
</g>
<defs>
<filter id="filter0_d_1107_1011" x="0" y="0" width="44" height="46" filterUnits="userSpaceOnUse" color-interpolation-filters="sRGB">
<feFlood flood-opacity="0" result="BackgroundImageFix"/>
<feColorMatrix in="SourceAlpha" type="matrix" values="0 0 0 0 0 0 0 0 0 0 0 0 0 0 0 0 0 0 127 0" result="hardAlpha"/>
<feOffset dx="-2" dy="4"/>
<feColorMatrix type="matrix" values="0 0 0 0 0.141176 0 0 0 0 0.121569 0 0 0 0 0.137255 0 0 0 1 0"/>
<feBlend mode="normal" in2="BackgroundImageFix" result="effect1_dropShadow_1107_1011"/>
<feBlend mode="normal" in="SourceGraphic" in2="effect1_dropShadow_1107_1011" result="shape"/>
</filter>
</defs>
</svg>
