<svg width="44" height="46" viewBox="0 -4 44 46" fill="none" xmlns="http://www.w3.org/2000/svg">
<rect x="1" y="1" width="40" height="40" rx="11" fill="#A7A5A7"/>
<rect x="1" y="1" width="40" height="40" rx="11" stroke="#241F23" stroke-width="2"/>
<path fill-rule="evenodd" clip-rule="evenodd" d="M11.3333 13C10.781 13 10.3333 13.4477 10.3333 14V14.6667C10.3333 15.219 10.781 15.6667 11.3333 15.6667H30.6666C31.2189 15.6667 31.6666 15.219 31.6666 14.6667V14C31.6666 13.4477 31.2189 13 30.6666 13H11.3333ZM10.3333 20.6667C10.3333 20.1144 10.781 19.6667 11.3333 19.6667H30.6666C31.2189 19.6667 31.6666 20.1144 31.6666 20.6667V21.3333C31.6666 21.8856 31.2189 22.3333 30.6666 22.3333H11.3333C10.781 22.3333 10.3333 21.8856 10.3333 21.3333V20.6667ZM10.3333 27.3333C10.3333 26.781 10.781 26.3333 11.3333 26.3333H30.6666C31.2189 26.3333 31.6666 26.781 31.6666 27.3333V28C31.6666 28.5523 31.2189 29 30.6666 29H11.3333C10.781 29 10.3333 28.5523 10.3333 28V27.3333Z" fill="#241F23"/>
</svg>
