<svg width="14" height="14" viewBox="0 0 14 14" fill="none" xmlns="http://www.w3.org/2000/svg">
<path fill-rule="evenodd" clip-rule="evenodd" d="M12.7145 12.7145C12.1886 13.2403 11.336 13.2403 10.8101 12.7145L6.99998 8.90436L3.18988 12.7145C2.664 13.2403 1.81138 13.2403 1.2855 12.7145V12.7145C0.759622 12.1886 0.759622 11.336 1.2855 10.8101L5.0956 6.99998L1.2855 3.18988C0.759622 2.664 0.759622 1.81138 1.2855 1.2855V1.2855C1.81138 0.759622 2.664 0.759622 3.18988 1.2855L6.99998 5.0956L10.8101 1.2855C11.336 0.759622 12.1886 0.759622 12.7145 1.2855V1.2855C13.2403 1.81138 13.2403 2.664 12.7145 3.18988L8.90436 6.99998L12.7145 10.8101C13.2403 11.336 13.2403 12.1886 12.7145 12.7145V12.7145Z" fill="#241F23"/>
</svg>
