<svg width="273" height="261" viewBox="0 0 273 261" fill="none" xmlns="http://www.w3.org/2000/svg">
<path d="M4.0752 3.34647H269.526V257.736H4.0752V3.34647Z" fill="#241F23"/>
<path d="M272.686 0.173965H0.916016V260.908H272.686V0.173965ZM266.367 254.563H7.23463V6.51907H266.367V254.563Z" fill="#F7F2EA"/>
<path d="M260.843 248.823H13.3162V35.5281H260.843V248.823ZM37.0949 21.0484C37.0949 25.3908 33.59 28.9104 29.2657 28.9104C24.9464 28.9104 21.4415 25.3908 21.4415 21.0484C21.4415 16.706 24.9464 13.1864 29.2657 13.1864C33.59 13.1864 37.0949 16.706 37.0949 21.0484ZM65.2473 21.0484C65.2473 25.3908 61.7424 28.9104 57.4181 28.9104C53.0988 28.9104 49.5939 25.3908 49.5939 21.0484C49.5939 16.706 53.0988 13.1864 57.4181 13.1864C61.7424 13.1864 65.2473 16.706 65.2473 21.0484ZM92.8073 21.0484C92.8073 25.3908 89.3074 28.9104 84.9831 28.9104C80.6588 28.9104 77.1539 25.3908 77.1539 21.0484C77.1539 16.706 80.6588 13.1864 84.9831 13.1864C89.3074 13.1864 92.8073 16.706 92.8073 21.0484Z" fill="#F7F2EA"/>
</svg>
